<?xml version="1.0" encoding="UTF-8" standalone="no"?>
<svg
   xmlns:dc="http://purl.org/dc/elements/1.1/"
   xmlns:cc="http://creativecommons.org/ns#"
   xmlns:rdf="http://www.w3.org/1999/02/22-rdf-syntax-ns#"
   xmlns:svg="http://www.w3.org/2000/svg"
   xmlns="http://www.w3.org/2000/svg"
   xmlns:sodipodi="http://sodipodi.sourceforge.net/DTD/sodipodi-0.dtd"
   xmlns:inkscape="http://www.inkscape.org/namespaces/inkscape"
   version="1.0"
   width="341.83"
   height="335.72"
   id="svg56"
   sodipodi:docname="United_States_Air_Forces_in_Africa (plain).svg"
   inkscape:version="1.0 (4035a4fb49, 2020-05-01)">
  <title
     id="title1196">United States Air Forces in Africa</title>
  <metadata
     id="metadata62">
    <rdf:RDF>
      <cc:Work
         rdf:about="">
        <dc:format>image/svg+xml</dc:format>
        <dc:type
           rdf:resource="http://purl.org/dc/dcmitype/StillImage" />
        <dc:title>United States Air Forces in Africa</dc:title>
      </cc:Work>
    </rdf:RDF>
  </metadata>
  <defs
     id="defs60" />
  <sodipodi:namedview
     inkscape:document-rotation="0"
     pagecolor="#ffffff"
     bordercolor="#666666"
     borderopacity="1"
     objecttolerance="10"
     gridtolerance="10"
     guidetolerance="10"
     inkscape:pageopacity="0"
     inkscape:pageshadow="2"
     inkscape:window-width="1294"
     inkscape:window-height="1040"
     id="namedview58"
     showgrid="false"
     inkscape:zoom="1.6960966"
     inkscape:cx="90.478372"
     inkscape:cy="190.05098"
     inkscape:window-x="52"
     inkscape:window-y="0"
     inkscape:window-maximized="0"
     inkscape:current-layer="layer9">
    <inkscape:grid
       id="grid1193"
       type="xygrid" />
  </sodipodi:namedview>
  <path
     d="M 48.411,177.47 C 47.811,180.85 47.451,184.13 47.451,187.44 C 47.451,205.67 57.861,224.87 80.321,238.2 C 102.77,251.55 153.63,264.57 170.88,285.73 C 188.12,264.57 238.98,251.55 261.43,238.2 C 283.88,224.87 294.31,205.67 294.31,187.44 C 294.31,184.29 293.97,181.17 293.43,177.97 L 293.98,177.68 L 293.01,172.79 C 297.56,158.8 305.05,152.62 313.83,152.62 C 322.62,152.62 325.55,158.15 327.5,165.63 C 329.46,173.12 329.46,177.34 332.06,181.9 C 334.66,186.47 342.13,201.1 341.82,204.69 C 341.5,208.27 338.57,212.83 336.3,214.13 C 334.01,215.43 328.8,217.7 328.8,217.7 C 331.08,231.37 326.85,247.32 311.22,260.98 C 295.61,274.65 271.52,287.34 241.91,299.39 C 212.3,311.43 197.98,314.69 170.96,335.52 C 143.95,314.69 129.63,311.43 100.02,299.39 C 70.401,287.34 46.321,274.65 30.701,260.98 C 15.071,247.32 10.851,231.37 13.121,217.7 C 13.121,217.7 7.9106,215.43 5.6306,214.13 C 3.3606,212.83 0.43057,208.27 0.10057,204.69 C -0.22943,201.1 7.2606,186.47 9.8606,181.9 C 12.471,177.34 12.471,173.12 14.421,165.63 C 16.371,158.15 19.311,152.62 28.101,152.62 C 36.881,152.62 44.371,158.8 48.921,172.79 L 47.951,177.68 L 48.411,177.47"
     id="path2632"
     style="fill:#ffffff;fill-opacity:1;fill-rule:nonzero;stroke:none" />
  <path
     d="M 25.531,179.5 L 30.761,169.74 C 33.351,172.67 35.311,174.3 33.681,177.88 C 32.051,181.45 25.531,179.5 25.531,179.5"
     id="path2638"
     style="fill:#ffffff;fill-opacity:1;fill-rule:nonzero;stroke:none" />
  <g
     inkscape:groupmode="layer"
     id="layer4"
     inkscape:label="Seal Outer"
     style="display:inline">
    <path
       d="m 171.2,287.62 c -17.82,-22.55 -64.32,-34.67 -85.439,-46.28 -0.29,-0.16 -0.56,-0.34 -0.85,-0.47 -49.46,-25.82 -35.4,-67.74 -35.4,-67.74 9.71,-38.33 9.19,-51.26 9.19,-51.26 C 63.301,66.14 37.251,35.5 37.251,35.5 L 72.361,0 H 270.03 l 35.12,35.5 c 0,0 -26.05,30.64 -21.45,86.37 0,0 -0.53,12.93 9.17,51.26 0,0 14.06,41.92 -35.39,67.74 -0.28,0.13 -0.56,0.31 -0.85,0.47 -21.12,11.61 -67.63,23.73 -85.43,46.28"
       id="path2628"
       style="fill:#f7d118;fill-opacity:1;fill-rule:nonzero;stroke:none" />
    <path
       d="m 47.851,177.88 c -5.2,-13.99 -11.72,-22.46 -19.85,-22.46 -8.14,0 -11.07,8.47 -11.07,11.07 0,2.6 2.6,8.79 6.19,11.06 l 6.5,-12.03 c 5.21,3.9 8.79,7.15 8.14,14.96 -0.65,7.81 -6.84,15.3 -11.71,21.47 -4.89,6.19 -10.74,12.38 -10.74,24.09 0,11.71 6.82,23.76 18.55,34.18 11.71,10.41 28.64,20.17 43.6,27.01 14.97,6.84 38.409,14.65 53.699,21.8 15.3,7.16 29.29,14.65 39.71,23.11 10.41,-8.46 24.4,-15.95 39.7,-23.11 15.3,-7.15 38.73,-14.96 53.7,-21.8 14.96,-6.84 31.89,-16.6 43.6,-27.01 11.73,-10.42 18.55,-22.47 18.55,-34.18 0,-11.71 -5.85,-17.9 -10.74,-24.09 -4.87,-6.17 -11.06,-13.66 -11.71,-21.47 -0.65,-7.81 2.93,-11.06 8.14,-14.96 l 6.51,12.03 c 3.58,-2.27 6.18,-8.46 6.18,-11.06 0,-2.6 -2.93,-11.07 -11.07,-11.07 -8.13,0 -14.63,8.47 -19.85,22.46 l -0.97,-4.89 c 4.55,-13.99 12.04,-20.17 20.82,-20.17 8.79,0 11.72,5.53 13.68,13.02 1.95,7.49 1.95,11.71 4.55,16.28 2.61,4.55 10.09,19.2 9.77,22.77 -0.33,3.58 -3.26,8.14 -5.53,9.44 -2.28,1.3 -7.49,3.57 -7.49,3.57 2.27,13.68 -1.95,29.63 -17.58,43.29 -15.62,13.66 -39.71,26.36 -69.32,38.41 -29.61,12.03 -43.93,15.29 -70.94,36.12 -27.02,-20.83 -41.34,-24.09 -70.949,-36.12 -29.61,-12.05 -53.7,-24.75 -69.32,-38.41 -15.63,-13.66 -19.85,-29.61 -17.57,-43.29 0,0 -5.2204,-2.27 -7.5004,-3.57 -2.27,-1.3 -5.20003,-5.86 -5.520033,-9.44 -0.329997,-3.57 7.160033,-18.22 9.760033,-22.77 2.6004,-4.57 2.6004,-8.79 4.5504,-16.28 1.96,-7.49 4.89,-13.02 13.68,-13.02 8.78,0 16.27,6.18 20.82,20.17 l -0.97,4.89"
       id="path2634"
       style="fill:#f7d118;fill-opacity:1;fill-rule:nonzero;stroke:none" />
    <g
       id="g138">
      <path
         style="fill:#ffffff;fill-opacity:1;fill-rule:nonzero;stroke:none"
         id="path2636"
         d="m 325.77,173.33 c -2.6,5.85 -6.5,8.12 -9.44,9.42 -2.92,1.32 -9.11,-1.3 -9.11,-1.3 1.95,7.49 5.21,12.05 7.81,14.64 2.62,2.61 9.77,12.05 12.7,18.56 5.85,-2.28 9.12,-4.22 10.42,-7.81 1.3,-3.57 -0.98,-7.49 -2.93,-10.41 -1.96,-2.93 -6.51,-12.04 -7.49,-14.98 -0.97,-2.92 -1.96,-8.12 -1.96,-8.12" />
      <path
         style="fill:#ffffff;fill-opacity:1;fill-rule:nonzero;stroke:none"
         id="path2640"
         d="m 15.781,173.33 c 2.6,5.85 6.5,8.12 9.44,9.42 2.93,1.32 9.1,-1.3 9.1,-1.3 -1.95,7.49 -5.2,12.05 -7.81,14.64 -2.59,2.61 -9.75,12.05 -12.68,18.56 -5.8604,-2.28 -9.1104,-4.22 -10.4204,-7.81 -1.3,-3.57 0.99,-7.49 2.94,-10.41 1.95,-2.93 6.5004,-12.04 7.4804,-14.98 0.98,-2.92 1.95,-8.12 1.95,-8.12" />
      <path
         style="fill:#ffffff;fill-opacity:1;fill-rule:nonzero;stroke:none"
         id="path2642"
         d="m 316.01,179.5 -5.2,-9.76 c -2.6,2.93 -4.56,4.56 -2.94,8.14 1.64,3.57 8.14,1.62 8.14,1.62" />
      <path
         d="m 25.28026,179.5 5.2,-9.76 c 2.6,2.93 4.56,4.56 2.94,8.14 -1.64,3.57 -8.14,1.62 -8.14,1.62"
         id="path154"
         style="fill:#ffffff;fill-opacity:1;fill-rule:nonzero;stroke:none" />
    </g>
  </g>
  <g
     inkscape:groupmode="layer"
     id="layer9"
     inkscape:label="Seal Inner"
     style="display:inline">
    <g
       id="g1929"
       transform="matrix(0.18251079,0,0,0.184516,131.61,66.635528)"
       style="fill:#171695;fill-opacity:1">
      <g
         id="g2479">
        <path
           transform="matrix(5.4791281,0,0,5.4791281,-721.10805,-361.55368)"
           sodipodi:nodetypes="cscscccccscccccsscsccccccsccsscccscccccccccccscccsccscsccsccccccsccccscccccccscscc"
           style="fill:#171695;fill-opacity:1;stroke-width:0.025043"
           d="m 61.927212,21.473619 c -7.83481,7.967828 -14.251899,14.674925 -14.251899,14.901857 0,0.226931 0.621806,1.361588 1.367984,2.521462 0.746168,1.134658 1.367984,2.14325 1.367984,2.218891 0,0.07566 0.472577,0.958149 1.069517,1.99196 1.840551,3.126615 5.049095,10.211924 6.790167,14.876638 0.198978,0.529503 0.497452,1.386806 0.696429,1.891102 0.397954,1.059016 1.616709,5.168999 2.26339,7.513965 0.223851,0.832085 0.497451,1.916309 0.646679,2.395388 0.124364,0.47908 0.348215,1.563314 0.472577,2.395389 0.124364,0.832085 0.422839,2.294541 0.64669,3.277908 2.039528,9.152918 3.233409,23.701764 3.009557,36.813391 -0.07463,4.43777 -0.273591,9.53114 -0.397953,11.34658 -0.870542,10.79188 -1.094393,13.2377 -1.542095,16.64167 -0.273592,2.0676 -0.771043,5.32029 -1.094384,7.18618 -0.348214,1.86588 -0.721303,4.08478 -0.870532,4.91685 -0.149237,0.83208 -0.422836,2.24412 -0.621814,3.15183 -0.198977,0.90773 -0.522317,2.42061 -0.721302,3.40398 -0.223853,0.95816 -0.547193,2.44582 -0.746169,3.2779 -0.198978,0.83208 -0.547201,2.29454 -0.771052,3.27792 -1.268496,5.3455 -1.641576,7.71567 -2.362878,15.12878 -0.522317,5.39594 -0.522317,7.48875 0.02484,13.11161 0.721303,7.61483 3.308032,14.54884 7.213005,19.41529 1.56696,1.96673 6.640939,6.8836 8.929203,8.64861 0.472568,0.37822 0.92028,0.73123 0.994893,0.8321 0.69643,0.80686 11.615422,8.54775 12.063124,8.54775 0.07463,0 1.218755,0.63036 2.561864,1.41203 2.785706,1.63894 12.262103,6.58102 14.127533,7.36267 0.69643,0.30256 1.98979,0.88251 2.86033,1.28595 0.87052,0.40343 3.7806,1.58851 6.44197,2.64752 2.66135,1.05902 5.07397,2.04239 5.34756,2.14324 0.77105,0.32781 2.28827,0.93294 4.85013,1.91634 1.29337,0.47909 2.56185,1.00858 2.7857,1.13468 0.24873,0.15126 0.57208,0.25212 0.72131,0.25212 0.14923,0 0.62181,0.15128 1.04464,0.353 0.44771,0.1765 1.24363,0.50427 1.79082,0.73121 3.97957,1.56333 8.95406,3.63091 10.19768,4.21086 1.8157,0.85728 9.55101,4.71513 10.07333,5.04293 0.19899,0.12606 1.94005,1.15987 3.85522,2.29452 3.30804,1.96675 8.63073,5.42117 9.70024,6.30366 0.27361,0.22693 1.6416,1.36158 3.03446,2.47105 1.39284,1.13464 3.13391,2.5971 3.85521,3.27789 1.96492,1.79025 1.96492,1.79025 4.07909,-0.20171 4.89986,-4.6395 9.70024,-8.0939 17.13709,-12.35518 1.51721,-0.8573 2.91008,-1.66416 3.10905,-1.79023 0.77106,-0.50429 8.4815,-4.28649 8.70535,-4.28649 0.14923,0 0.44771,-0.12608 0.69643,-0.25214 0.79592,-0.45386 3.8801,-1.79026 8.00891,-3.45442 2.2634,-0.88252 4.45216,-1.79024 4.89986,-1.99195 0.42284,-0.20172 0.9203,-0.353 1.11927,-0.353 0.19899,0 0.4477,-0.10085 0.57206,-0.22694 0.14925,-0.12609 1.49235,-0.63035 2.98471,-1.15986 1.51721,-0.5043 2.95981,-1.03381 3.23341,-1.15991 0.2736,-0.12605 0.84565,-0.32778 1.24362,-0.45384 0.42283,-0.12608 1.86543,-0.65557 3.23341,-1.15986 1.36798,-0.50431 3.20854,-1.18511 4.10396,-1.51288 1.74106,-0.60517 4.20343,-1.61373 5.89475,-2.42061 0.59694,-0.25214 1.11927,-0.47908 1.19388,-0.47908 0.49744,0 12.43621,-6.0515 13.4311,-6.80796 0.14924,-0.10085 1.04465,-0.60515 1.98981,-1.13466 5.32269,-2.87446 12.48594,-8.34605 17.90815,-13.66634 7.41197,-7.26181 10.86924,-13.96891 12.98339,-25.2903 0.6218,-3.42919 0.6218,-12.93512 0,-16.51559 -0.99488,-5.6733 -1.21874,-6.88359 -1.54209,-8.32084 -0.17411,-0.83208 -0.52232,-2.42061 -0.74618,-3.53003 -0.22384,-1.10945 -0.52232,-2.39539 -0.64667,-2.82405 -0.14924,-0.45386 -0.34821,-1.36157 -0.47259,-2.01716 -0.12435,-0.68081 -0.44771,-2.24412 -0.74617,-3.47964 -0.74617,-3.25268 -0.84564,-3.73177 -2.13901,-10.46407 -1.41773,-7.31225 -2.83545,-26.3493 -2.83545,-37.82195 0,-6.48017 0.59694,-16.767753 1.26848,-22.062828 0.97003,-7.665258 1.19388,-9.1025 1.96492,-12.733399 0.87054,-4.160417 1.01977,-4.790787 1.61671,-7.060101 0.42281,-1.664162 2.43749,-8.043469 2.83546,-8.951204 0.12435,-0.277365 0.42282,-1.008584 0.67155,-1.638954 1.36798,-3.504829 2.36288,-5.723721 4.0542,-9.203342 1.64158,-3.35355 5.3227,-9.833713 5.74554,-10.085862 0.14922,-0.100843 0.24871,-0.378222 0.24871,-0.630361 0,-0.479079 -27.53377,-28.6690532 -28.52867,-29.2237833 C 266.22927,7.0760512 242.27713,7.0004109 171.11712,7.0004109 H 76.154236 Z"
           id="path242" />
      </g>
    </g>
  </g>
  <g
     inkscape:groupmode="layer"
     id="layer5"
     inkscape:label="Text"
     style="display:inline">
    <g
       id="g436"
       transform="matrix(0.18329128,0,0,0.18329128,101.51186,241.00085)"
       style="fill:#141393;fill-opacity:1">
      <path
         style="fill:#141393;fill-opacity:1;stroke-width:0.133333"
         d="m -286.10451,-94.759409 c -2.26667,1.333333 -2.26667,1.733333 -0.4,4.533333 1.2,1.866667 2.13333,4.4 2.13333,5.733333 0,3.2 -12.8,15.066666 -41.33333,38.266666 -26.66667,21.466666 -34.66667,31.866666 -34.66667,44.6666651 0.13334,18.9333359 20.66667,36.1333359 38.13334,31.8666659 13.06666,-3.2 19.06666,-7.6 70.39999,-51.733332 1.73333,-1.466667 5.06667,-2.133333 11.2,-2.133333 11.73333,0 12,-1.866667 2,-13.866666 -5.6,-6.8 -8.66667,-9.466667 -10.93333,-9.466667 -2.93334,0 -3.06667,0.266667 -2.4,6 0.53333,3.333333 0.26666,7.466666 -0.4,9.2 -1.86667,5.066666 -48.13333,44.799998 -59.2,50.933328 -11.86666,6.53334 -21.2,4.4 -28.4,-6.13333 -5.06666,-7.1999999 -3.46666,-15.8666659 4.4,-25.199999 3.73334,-4.4 40.93334,-36.666666 55.46667,-47.999999 4.13333,-3.333333 9.73333,-3.599999 11.46666,-0.666666 1.46667,2.666666 6.13334,1.866666 6.66667,-1.066667 0.4,-2.133333 -19.46667,-34.399999 -21.06667,-34.399999 -0.4,0.133334 -1.73333,0.666667 -3.06666,1.466667 z"
         id="path298" />
      <path
         style="fill:#141393;fill-opacity:1;stroke-width:0.133333"
         d="m 1004.5621,-64.626077 c -2.8,2.666667 2.2667,11.333333 33.0667,55.7333321 24.6666,35.8666689 26.1333,38.2666689 27.2,46.3999989 1.2,10.4 4.2666,10.13333 14.8,-1.73333 6.9333,-7.73334 8,-9.73334 6.6666,-11.33334 -1.8666,-2.26666 -6.1333,-2.66666 -7.3333,-0.66666 -0.4,0.66666 -2.4,1.33333 -4.4,1.33333 -4.1333,0 -17.6,-13.06667 -17.6,-17.3333299 0,-2.66667 12,-17.8666691 16.4,-20.5333351 1.8667,-1.2 4.4,-0.4 12.6667,3.8666661 l 10.2666,5.333333 v 6 c 0,5.066666 0.4,5.999996 2.6667,6.399996 2,0.26667 4.4,-2 9.3333,-8.66666203 3.6,-4.93333397 8,-10.93333307 9.6,-13.20000007 2.9334,-4 3.0667,-4.4 0.9334,-6.533333 -1.6,-1.6 -3.4667,-2 -7.2,-1.333334 -4.2667,0.666667 -7.3334,-0.266666 -20.5334,-6.533333 -8.5333,-4.133333 -15.8666,-7.466666 -16.1333,-7.466666 -0.8,0 -59.7333,-27.2 -63.6,-29.333333 -2.8,-1.6 -5.6,-1.733333 -6.8,-0.4 z m 42.9333,36.666666 c 15.7334,8 17.7334,10 14,14 -1.3333,1.466666 -4.1333,4.5333331 -6.1333,6.9333331 -1.8667,2.266666 -4.1333,4.133333 -4.9333,4.133333 -2,0 -21.3334,-28.1333331 -21.4667,-31.0666661 0,-3.066666 1.0667,-2.8 18.5333,6 z"
         id="path300" />
      <path
         style="fill:#141393;fill-opacity:1;stroke-width:0.133333"
         d="m 982.96212,-35.959411 c -0.2667,0.933333 -0.6667,3.466667 -0.9333,5.6 -0.4,3.466667 -1.0667,4 -7.7334,5.733333 -16.1333,4 -25.3333,15.7333331 -25.3333,32.6666621 0,33.5999999 34.9333,72.8000039 67.46668,75.4666739 13.4666,1.06667 23.8666,-4 31.0666,-15.06667 2.9334,-4.53333 3.4667,-6.8 3.4667,-15.333334 0,-8.13333 -0.8,-11.6 -3.8667,-18.66667 -4.5333,-10.13333 -8.1333,-14.53333 -10.1333,-12.53333 -0.9333,0.93333 -0.1333,4.13333 2.6667,10.4 3.2,7.2 4,10.93333 4,18.13333 0,7.866674 -0.5334,9.733344 -3.4667,13.333344 -7.3333,8.53333 -14.6667,10 -25.3333,4.66666 -19.59998,-9.73333 -55.19998,-54.800004 -55.19998,-69.7333329 0,-5.866667 4.8,-12.1333331 11.4666,-15.0666661 5.8667,-2.666667 6.2667,-2.666667 13.6,-0.4 7.6,2.4 16.79998,7.2000001 24.26668,12.7999991 3.0667,2.133334 4.4,2.533334 5.6,1.333334 1.0667,-1.066667 -2.4,-5.6 -13.6,-17.8666671 -8.26668,-9.066666 -15.59998,-16.533332 -16.13328,-16.799999 -0.6667,-0.266667 -1.4667,0.266667 -1.8667,1.333333 z"
         id="path302" />
      <path
         style="fill:#141393;fill-opacity:1;stroke-width:0.133333"
         d="m -211.57118,11.907254 c -12.26667,6.53333 -23.46667,23.33333 -23.46667,35.2 0,6 4,15.866674 12.66667,31.333334 1.86666,3.33334 3.33333,7.86667 3.33333,10.26667 0,6.13333 -7.33333,15.200002 -14.4,17.733332 -5.33333,1.86667 -6,1.73333 -10.53333,-0.66667 -6.4,-3.46666 -9.73334,-8.266662 -10.66667,-15.199992 -0.8,-6 1.6,-20 4.53333,-25.73334 2,-4.26666 2.26667,-9.06666 0.4,-9.06666 -0.8,0 -4.13333,3.73333 -7.73333,8.26666 -3.46666,4.53334 -9.06666,11.86667 -12.53333,16.13334 -3.6,4.4 -6.4,8.8 -6.4,9.86666 0,2.13334 4.26667,2.26667 6.26667,0.26667 0.8,-0.8 2.8,-1.2 4.4,-0.93333 2.26666,0.26666 3.46666,1.86666 4.66666,6 4.4,14.933332 17.46667,21.999992 32.93333,17.733332 10.26667,-2.93334 24.66667,-19.600002 28.66667,-33.333332 2.66667,-9.33334 1.33333,-14.8 -7.2,-29.466674 -9.73333,-16.8 -8.53333,-27.33333 4,-33.33333 5.33333,-2.66667 6,-2.66667 10.66667,-0.8 7.73333,3.33333 10.53333,9.06666 9.86666,20.26666 -0.4,5.06667 -1.86666,12.53334 -3.46666,16.53334 -2.66667,6.933334 -2.66667,9.466664 -0.13334,9.466664 0.66667,0 6.66667,-7.200004 13.46667,-16.133334 12.4,-16.4 14,-21.06667 5.6,-16.8 -4.8,2.53333 -6.4,1.6 -9.2,-5.06667 -2.53333,-6.26666 -6.4,-10.8 -11.46667,-13.46666 -5.33333,-2.7999999 -18,-2.2666699 -24.26666,0.93333 z"
         id="path304" />
      <path
         style="fill:#141393;fill-opacity:1;stroke-width:0.133333"
         d="m 920.29542,16.173924 c -2.2666,1.6 -8.9333,6.4 -15.0666,10.66666 -9.6,6.8 -10.8,8.13334 -9.6,10.4 1.7333,3.06667 1.7333,3.06667 6.8,0.53334 4.8,-2.53334 6.4,-1.73334 12.1333,6.26666 2.4,3.46667 11.8667,16.933344 21.0667,29.733344 28.4,39.866662 29.3333,41.199992 29.3333,43.466662 0,1.2 -1.2,3.2 -2.6667,4.53333 -2.8,2.53334 -3.2,7.46667 -0.5333,8.26667 2.2667,0.8 33.8667,-20.8 33.8667,-23.06667 0,-2.8 -3.3334,-3.73333 -6.6667,-1.86666 -5.3333,2.8 -8.4,0.4 -18.6667,-14.266672 -5.4666,-7.73333 -13.8666,-19.6 -18.5333,-26.26666 -28.2667,-39.866674 -28.1333,-39.733344 -22.6667,-45.600004 5.4667,-5.86667 -1.4666,-8 -8.8,-2.8 z"
         id="path306" />
      <path
         style="fill:#141393;fill-opacity:1;stroke-width:0.133333"
         d="m 865.62882,51.773924 c -12.1334,4.533334 -48,23.733334 -48.4,25.866664 -0.5334,2.66667 2.9333,4.13334 6.1333,2.66667 1.2,-0.53333 3.2,-0.8 4.2667,-0.66667 2,0.4 7.8666,6.53334 8,8.4 0,0.93334 10.2666,19.066672 13.3333,23.733332 0.8,1.06667 1.8667,3.2 2.5333,4.8 0.6667,1.46667 3.6,6.66667 6.4,11.33334 5.2,8.53333 8.5334,14.26666 17.4667,30.26666 l 4.6667,8.4 -4,4.26667 c -4.4,4.53333 -4.4,7.6 -0.2667,7.6 3.2,0 31.0667,-14.13333 33.4667,-16.93333 2.6666,-3.33334 -1.8667,-5.86667 -7.0667,-4 -3.4667,1.33333 -4.2667,1.2 -7.0667,-1.73334 -3.6,-3.73333 -22.1333,-35.73333 -22.1333,-38.26666 0,-2.66667 3.8667,-5.6 8.6667,-6.53334 6.9333,-1.2 12,2.53334 20.1333,14.8 3.8667,5.86667 8.8,13.2 11.0667,16.26667 7.0666,9.6 19.3333,10.93333 26.1333,2.8 3.0667,-3.6 3.4667,-5.06667 2.9333,-10.93333 -1.0666,-10.8 -2.8,-16 -5.4666,-16.53334 -2.1334,-0.4 -2.4,0 -1.6,2.53334 2.5333,8.66666 2.5333,11.86666 0.1333,12.66666 -1.7333,0.66667 -3.4667,-0.26666 -6.2667,-3.6 -19.7333,-22.8 -22.8,-25.33333 -31.2,-25.59999 -5.6,-0.13334 -5.8666,-2.66667 -0.8,-8.000002 3.2,-3.46667 3.6,-4.66667 3.6,-13.33334 0,-8 -0.6666,-10.53333 -3.6,-15.6 -4.6666,-7.73333 -9.7333,-12.666664 -16,-15.200004 -6.1333,-2.66666 -6.9333,-2.66666 -15.0666,0.53334 z m 4.2666,12.000004 c 5.7334,3.46666 12,12.26666 14.4,20.4 1.8667,6.13333 1.7334,7.2 -0.4,11.46666 -2.5333,5.333342 -12.8,13.733332 -15.3333,12.666672 -2.5333,-0.93334 -20.9333,-32.400002 -20.9333,-35.733332 0,-3.6 2.9333,-6.53334 9.3333,-9.33334 6.1333,-2.66666 7.8667,-2.66666 12.9333,0.53334 z"
         id="path308" />
      <path
         style="fill:#141393;fill-opacity:1;stroke-width:0.133333"
         d="m -88.504517,78.307258 c -2.53333,2.93333 -9.46667,10.26667 -15.333333,16.4 -5.86667,6.133332 -16.26667,17.333332 -23.2,25.066662 -18.93334,20.8 -26.13334,27.46667 -33.06667,30.66667 -9.73333,4.4 -10.26666,4.8 -10.26666,7.33333 0,2.93334 21.06666,14.66667 24.13333,13.46667 2.66666,-1.06667 2.26666,-5.33333 -0.8,-8.13333 -3.06667,-2.66667 -3.33334,-6.66667 -0.93334,-10.93334 2.66667,-4.8 10.26667,-12.4 12.26667,-12.4 3.2,0 22.26667,9.73334 23.06667,11.73334 0.93333,2.66666 -3.73334,20.4 -6.13334,23.33333 -1.2,1.33333 -3.46666,2.13333 -5.46666,2 -2.66667,-0.26667 -3.6,0.26667 -3.86667,2.26667 -0.26667,2.26666 2,3.86666 12.66667,9.06666 16.000003,7.86667 20.133333,7.33334 16.533333,-2 -0.8,-2.13333 -0.4,-6.8 1.33333,-14.4 1.46667,-6.26666 3.46667,-15.6 4.53334,-20.66666 1.06666,-5.2 3.2,-15.06667 4.66666,-22 11.46667,-52.400002 11.73334,-55.066672 7.33334,-55.733332 -1.86667,-0.26667 -4.4,1.46666 -7.46667,4.93333 z m -12.933333,31.200002 c -0.8,2.4 -2.13334,7.06666 -2.8,10.4 -2.53334,11.06666 -4.8,19.6 -5.6,20.53333 -1.46667,1.33333 -18.53334,-7.33333 -18.53334,-9.33333 0,-1.73334 19.06667,-23.06667 24,-26.93334 3.2,-2.53333 4.800003,0.26667 2.93334,5.33334 z"
         id="path310" />
      <path
         style="fill:#141393;fill-opacity:1;stroke-width:0.133333"
         d="m 789.62882,87.240588 c -5.8667,2.66667 -11.6,4.93334 -12.6667,5.33334 -1.0667,0.4 -9.4667,3.86666 -18.6667,7.733332 -13.0666,5.46666 -16.6666,7.6 -16.6666,9.6 0,2.13333 1.2,2.66666 6.6666,3.2 l 6.6667,0.66666 8.6667,17.33334 c 12.4,24.8 31.6,64.66666 33.2,69.06666 1.2,3.2 1.0666,4.13334 -1.8667,7.06667 -5.8667,5.86667 -3.7333,11.73333 2.9333,8 2.1334,-1.06667 5.8667,-2.8 8.4,-3.86667 2.5334,-1.06666 8.6667,-3.6 13.7334,-5.6 10.6666,-4.4 12.9333,-6.53333 10,-9.46666 -1.7334,-1.73334 -2.6667,-1.86667 -5.0667,-0.53334 -6.5333,3.46667 -8.6667,1.2 -19.6,-20.93333 -9.6,-19.73333 -10,-20.93333 -7.7333,-22.53333 1.3333,-1.06667 3.3333,-1.86667 4.2666,-1.86667 4.2667,0 10.9334,4.13333 15.4667,9.46667 3.3333,4.13333 5.2,5.46666 6.1333,4.53333 1.0667,-1.06667 -1.7333,-8 -9.2,-23.06667 -5.8666,-12 -10.6666,-22.26666 -10.6666,-22.93333 0,-0.8 -0.8,-1.33333 -1.8667,-1.33333 -1.6,0 -2,2.26666 -1.7333,11.2 0.2666,10.4 0,11.6 -2.9334,14.26666 -2.4,2.26667 -3.7333,2.66667 -5.3333,1.6 -1.2,-0.66666 -6.1333,-9.33333 -11.0667,-19.2 -7.6,-15.33333 -8.6666,-18.26666 -7.2,-20.4 1.8667,-2.93333 11.8667,-7.333332 16.8,-7.333332 6.4,-0.13333 15.2,5.200002 23.6,14.133332 11.6,12.4 12,8.8 1.2,-11.733332 -7.0666,-13.46666 -9.2,-16.53333 -11.7333,-16.8 -1.7333,-0.13333 -7.8667,1.86667 -13.7333,4.4 z"
         id="path312" />
      <path
         style="fill:#141393;fill-opacity:1;stroke-width:0.133333"
         d="m -36.104517,94.707258 c -2.4,2.4 -2,3.6 2.4,7.733332 l 4,3.73333 -2.66667,6.26667 c -1.46666,3.46667 -6.26666,13.6 -10.53333,22.4 -14.53333,30.13333 -25.46667,53.06667 -25.46667,53.73333 0,0.4 -1.33333,2.53334 -2.8,4.8 -2.53333,3.46667 -3.6,3.86667 -7.33333,3.33334 -2.4,-0.4 -5.33333,0 -6.53333,0.93333 -2,1.46667 -2,1.73333 0.26666,3.73333 1.33334,1.2 9.86667,5.33334 18.93334,9.2 15.73333,6.66667 16.53333,6.93334 18.26666,4.53334 2.53334,-3.46667 2.4,-4 -1.46666,-5.73334 -6.13334,-2.8 -5.6,-6.66666 3.6,-25.86666 4.8,-9.73334 11.33333,-23.33334 14.53333,-30.26667 3.2,-6.93333 8.93333,-18.66667 12.53333,-26 l 6.66667,-13.46667 h 6.2666627 c 3.46667,-0.13333 6.66667,-0.53333 7.2,-0.93333 1.6,-1.73333 -0.66666,-5.06667 -4.4,-6.53333 -6.933333,-2.8 -9.0666627,-3.73333 -20.2666627,-8.400002 -13.2,-5.6 -11.2,-5.2 -13.2,-3.2 z"
         id="path314" />
      <path
         style="fill:#141393;fill-opacity:1;stroke-width:0.133333"
         d="m 18.428816,117.64059 c -1.33333,1.6 -0.8,2.66667 2.4,5.6 2.26667,2 4.13333,4.4 4.13333,5.46667 0,2.13333 -5.73333,16.13333 -15.3333303,37.06666 -2.53333,5.6 -6.13333,13.86667 -12.66667,29.33334 -7.0666627,16.53333 -10.5333327,23.73333 -12.5333327,25.06666 -0.8,0.53334 -3.33333,0.66667 -5.6,0.26667 -2.8,-0.53333 -4.66667,0 -5.86667,1.33333 -2.39999,2.8 -0.26666,4.66667 10,8.53334 4.4,1.73333 11.4666727,4.53333 15.7333427,6.26666 9.2,3.86667 11.06666,4 12.1333303,0.93333 0.66667,-1.59999 -0.26667,-3.33333 -3.2000003,-5.73333 -4.53333,-3.73333 -4.93333,-6 -2.13333,-11.6 1.06666,-2 2.8,-5.86666 4,-8.4 8.2666603,-19.06666 10.2666603,-23.6 11.3333303,-25.33333 2,-3.73333 6.26667,-2.93333 11.46667,1.86667 4.8,4.66666 4.93333,5.06666 4.13333,11.33333 -0.53333,3.6 -2.4,10.13333 -4.26667,14.4 -4.4,9.86667 -8.53333,22.53333 -8.53333,26.26666 0,3.6 4.4,10.13334 8.26667,12.26667 4.53333,2.53333 11.86666,2.26667 16.8,-0.8 4.4,-2.66667 12.66666,-14.13333 11.86666,-16.53333 -0.93333,-2.66667 -3.6,-2.26667 -4.8,0.8 -2.4,5.46666 -6.26666,9.6 -8.66666,8.66666 -2.93334,-1.2 -2.66667,-5.6 1.33333,-21.19999 3.6,-14.13334 3.6,-20 0,-27.06667 -2.66667,-4.93333 -1.73333,-6 4.8,-6 11.86667,0 20.8,-7.73333 26.4,-22.53333 3.2,-8.13334 3.33333,-12.93334 0.66667,-19.2 -3.46667,-8.53334 -8.53334,-11.86667 -33.73334,-22.66667 -13.2,-5.6 -24.66666,-10.26667 -25.33333,-10.26667 -0.66667,0 -2,0.8 -2.8,1.86667 z m 35.33333,19.33333 c 3.06667,1.33334 6.53334,3.86667 7.73334,5.6 4.93333,7.2 1.2,23.06667 -8.13334,33.33334 -4.13333,4.53333 -5.46666,5.2 -10.53333,5.2 -6.8,0 -14.93333,-2.93334 -16,-5.86667 -0.8,-2.26667 11.86667,-32.66667 15.73333,-37.46667 3.06667,-4 4.13334,-4 11.2,-0.8 z"
         id="path320" />
      <path
         style="fill:#141393;fill-opacity:1;stroke-width:0.133333"
         d="m 698.96212,125.64059 c -2.5333,1.86667 -2.2667,8.53333 2.8,62.13333 2.9333,31.46667 3.0667,49.33334 0.1333,53.73333 -2.6666,4.13334 -2.9333,6.8 -0.5333,8.66667 1.2,1.06667 4.9333,0.26667 13.6,-2.8 10.6667,-3.86667 12,-4.66667 12,-7.6 0,-2.8 -0.6667,-3.33333 -4.2667,-3.33333 -6.5333,0 -10.5333,-4.66667 -12,-14.13333 -1.6,-9.6 -0.4,-11.46667 8.9334,-15.06667 3.3333,-1.33333 8,-3.2 10.4,-4.26667 2.4,-1.06666 5.2,-1.86666 6.1333,-1.86666 2.1333,0 15.4667,18.26666 15.4667,21.33333 0,1.2 -1.2,3.33333 -2.6667,4.66667 -3.2,2.93333 -3.4667,5.73333 -0.6667,6.93333 2.1334,0.66667 21.4667,-5.6 24,-7.73333 0.6667,-0.66667 2.2667,-1.2 3.4667,-1.2 2.9333,0 5.4667,-3.2 4.5333,-5.6 -0.4,-1.06667 -2.6666,-2.8 -5.0666,-3.86667 -3.2,-1.33333 -12.6667,-13.06667 -37.2,-45.73333 -18.1334,-24.26667 -33.7334,-44.4 -34.8,-45.06667 -1.0667,-0.53333 -2.9334,-0.26667 -4.2667,0.8 z m 20.4,50.13333 c 5.3333,7.33334 9.6,14.53334 9.6,16 0,1.73334 -2,3.2 -7.3333,5.2 -13.3334,5.06667 -13.2,5.2 -14.6667,-15.2 -0.5333,-6.53333 -1.2,-13.6 -1.6,-15.6 -0.5333,-3.06666 -0.2667,-3.73333 1.8667,-3.73333 1.7333,0 5.6,4.26667 12.1333,13.33333 z"
         id="path322" />
      <path
         style="fill:#141393;fill-opacity:1;stroke-width:0.133333"
         d="m 136.56215,160.70726 c -2.26667,2.13333 -0.53333,5.73333 3.73333,8.26666 2.66667,1.46667 4.66667,3.73334 4.66667,5.06667 -0.13333,3.46667 -2,10.93333 -9.86667,38.4 -1.86666,6.53333 -4.4,15.33333 -5.46666,19.33333 -1.2,4 -2.66667,9.06667 -3.33334,11.33333 -0.53333,2.13334 -2.4,8.8 -4,14.66667 -3.6,13.06667 -5.46666,15.46667 -11.86666,15.06667 -4,-0.4 -4.8,0 -4.8,2.26666 0,3.06667 4.8,5.86667 25.73333,14.8 7.73333,3.2 14.93333,5.6 15.86667,5.33334 3.33333,-1.33334 1.73333,-4.8 -3.6,-8.13334 -4.4,-2.8 -5.33334,-4.13333 -5.33334,-7.73333 0,-5.06667 8.93334,-41.06667 10.66667,-42.8 2.13333,-2.13333 7.33333,0.4 10.53333,5.2 2.4,3.46667 3.2,6.53333 3.33334,12.93333 0.13333,6.4 0.66666,8.4 2,8.4 1.46666,0 3.73333,-6.4 7.86666,-22 3.2,-12.13333 5.86667,-23.19999 6,-24.53333 0.53334,-4.53333 -2.8,-3.73333 -6.26666,1.6 -6.13334,9.86667 -13.2,13.2 -18.8,9.06667 -2.53334,-1.73333 -2.4,-2.26667 2,-19.6 2.4,-9.86667 4.93333,-18.93333 5.6,-20.13333 1.86666,-3.86667 7.06666,-4.26667 13.33333,-1.06667 12.93333,6.66667 17.06666,14 17.86666,31.73333 0.26666,6.93334 0.66666,12.8 0.93333,13.2 1.73333,1.6 4.8,-1.86666 5.46667,-6 1.06666,-5.86666 4.4,-20.26666 6.4,-27.33333 1.86666,-6.4 1.46666,-6.8 -14.93333,-14.26667 -11.33333,-5.06666 -24,-10.93333 -44.8,-20.8 -7.46666,-3.46666 -7.73333,-3.6 -8.93333,-2.26666 z"
         id="path324" />
      <path
         style="fill:#141393;fill-opacity:1;stroke-width:0.133333"
         d="m 595.89546,164.04059 c -0.93333,0.93333 -1.6,2.93333 -1.6,4.53333 0,1.6 -1.06666,4.26667 -2.4,5.86667 -2,2.53333 -2.93333,2.8 -5.33333,1.46667 -7.46667,-4 -24.13333,-0.26667 -30.66667,6.8 -3.86666,4.13333 -8.26666,16.8 -8.26666,23.46666 0,8.13334 5.06666,22 10,28 6,6.93333 13.06666,9.6 30,11.06667 17.6,1.6 21.46666,2.8 25.46666,8.26666 4.26667,5.73334 4.53334,18.4 0.53334,23.86667 -2.66667,3.73333 -10.66667,7.73333 -15.2,7.73333 -8.26667,0 -24.26667,-12.26666 -30.13334,-23.33333 -5.06666,-9.2 -10,-7.2 -6.8,2.8 2,6.26667 3.2,10.66667 8.53334,30.53333 3.06666,11.6 5.6,12.26667 7.46666,2 1.2,-6.26666 2,-7.46666 4.66667,-7.73333 1.73333,-0.26667 3.73333,0.13333 4.53333,0.93333 0.8,0.8 5.06667,1.46667 9.6,1.46667 11.86667,0 20.8,-4.8 26,-13.86667 3.46667,-6 4,-8 4,-17.86666 0,-8.93334 -0.66666,-12.93334 -3.46666,-20 -6.66667,-16.8 -15.46667,-22.8 -33.86667,-23.06667 -20,-0.13333 -29.06667,-5.33333 -30.26667,-17.33333 -0.66666,-7.06667 1.46667,-11.46667 7.46667,-15.46667 10.8,-7.33333 22.26667,-1.86666 37.33333,17.86667 2.4,3.2 4.93334,5.73333 5.6,5.73333 1.6,0 1.46667,-4.8 -0.26666,-10.53333 -3.86667,-12.13333 -5.06667,-16 -7.2,-24.13333 -2.8,-10.13334 -3.6,-11.2 -5.73334,-9.06667 z"
         id="path326" />
      <path
         style="fill:#141393;fill-opacity:1;stroke-width:0.133333"
         d="m 519.6288,200.70726 c -16,9.06666 -46.66667,27.73333 -52.4,31.86666 -7.6,5.46667 -8,9.2 -1.2,9.2 6.8,0 6.53333,-1.46667 10.4,46 1.06667,13.6 2.53333,31.6 3.2,40 0.66667,8.4 1.33333,16.4 1.33333,17.6 0,1.33333 -2.13333,4.66667 -4.66666,7.6 -4.8,5.2 -6,9.46667 -2.93334,9.46667 2.13334,0 63.73333,-36.93334 65.73333,-39.46667 1.73334,-2.26667 0.93334,-44.4 -0.93333,-46.4 -2,-2.26667 -2.93333,0.26667 -4.8,14 -3.06667,22 -11.73333,36.8 -26.26667,44.53333 -4.79999,2.53334 -5.06666,2.53334 -6.66666,0.26667 -1.6,-2.13333 -3.46667,-15.73333 -5.46667,-39.86667 -0.66666,-8.13333 -0.53333,-9.06666 2.26667,-10.93333 6.26667,-4.4 10.93333,-2 14.93333,7.6 2.26667,5.6 5.6,6.13333 5.2,0.8 -0.13333,-1.73333 -0.93333,-13.73333 -1.73333,-26.53333 -0.93334,-12.8 -1.86667,-23.6 -2.13334,-23.86667 -0.26666,-0.26667 -1.2,-0.13333 -2.26666,0.26667 -1.2,0.4 -2.13334,4 -2.8,10.26666 -0.66667,7.33334 -1.73334,10.93334 -4.53333,15.06667 -4.4,6.4 -7.6,8.8 -9.6,6.8 -2,-2 -4.4,-42 -2.8,-46.13333 1.6,-4.13333 13.46666,-10.4 19.59999,-10.4 6.13334,0 11.2,4.8 14.66667,14.13333 1.6,4.4 3.46667,7.86667 4,7.86667 0.66667,0 1.46667,-2.13334 1.73333,-4.66667 0.66667,-7.06666 -2.66666,-35.86666 -4.4,-37.2 -0.93333,-0.8 -3.73333,0 -7.46666,2.13334 z"
         id="path328" />
      <path
         style="fill:#141393;fill-opacity:1;stroke-width:0.133333"
         d="m 220.29547,214.30726 c -3.6,2.13333 -8.53333,5.86666 -10.93333,8.4 -4.93333,5.2 -11.86667,17.86666 -13.6,24.79999 -0.8,2.66667 -2,7.33334 -2.66667,10.26667 -2.39999,9.2 -1.73333,31.33333 1.06667,40.13333 5.86667,18 15.86667,30.66667 29.06667,36.53334 22.26666,9.86666 45.73333,-7.46667 53.06666,-39.2 7.46667,-32.4 0,-62.13333 -18.93333,-75.73333 -13.73334,-9.86667 -26,-11.6 -37.06667,-5.2 z m 30.13333,9.6 c 7.2,5.06666 9.2,11.2 9.2,28.53333 0,17.2 -3.2,33.73333 -10.4,54 -6.53333,18.53333 -17.59999,25.6 -28.26666,18.26666 -8.4,-5.6 -10,-10.26666 -9.86667,-28.26666 0.13334,-29.46667 10.26667,-63.73333 21.33334,-72.53333 4.66666,-3.73334 12.93333,-3.73334 17.99999,0 z"
         id="path330" />
      <path
         style="fill:#141393;fill-opacity:1;stroke-width:0.133333"
         d="m 286.96214,243.77392 c -0.4,0.66667 1.6,3.73333 4.53333,6.53333 l 5.46667,5.33334 v 11.73333 c 0,6.4 -0.66667,20.66667 -1.33334,31.73333 -0.66666,10.93334 -1.86666,29.86667 -2.53333,41.86667 -1.46667,22.26667 -2.26667,25.06667 -6.8,23.33333 -4,-1.6 -6,-1.2 -6,1.33334 0,1.86666 5.33333,6.26666 18.53333,15.06666 10.26667,6.8 19.06667,12.4 19.73334,12.4 2.53333,0 0.8,-6.53333 -2.26667,-8.53333 -7.6,-4.93334 -7.86667,-6.53334 -6,-32.26667 0.93333,-12.8 2.26667,-23.6 2.93333,-24 2,-1.2 11.86667,6.4 15.46667,11.86667 3.33333,4.93333 3.46667,6.53333 4.4,28.8 0.53333,12.93333 1.6,25.73333 2.4,28.4 2,6.53333 12.4,17.86666 18.13333,19.73333 8.4,2.8 14.53334,-4.13333 13.73334,-15.73333 -0.4,-7.06667 -2.66667,-7.86667 -3.73334,-1.46667 -0.93333,5.6 -4.8,8.13333 -7.2,4.8 -1.86666,-2.53333 -4.8,-18.93333 -4.8,-27.33333 0,-7.33333 -4.8,-21.46667 -9.6,-28 -4.4,-6.26667 -3.73333,-9.86667 1.33334,-7.06667 7.6,4 15.46666,-1.2 17.06666,-11.33333 2.26667,-15.73333 -2,-30.4 -13.06666,-43.46667 -5.33334,-6.53333 -55.2,-45.06666 -58.26667,-45.06666 -0.66667,0 -1.73333,0.53333 -2.13333,1.33333 z m 39.46666,34.53333 c 12.26667,8.8 15.86667,15.86667 15.86667,31.06667 0,11.06667 -2.53333,18 -7.06667,19.06667 -3.73333,1.06666 -11.6,-2 -18,-6.93334 l -4.53333,-3.46666 0.93333,-20.13334 c 0.93334,-18.93333 2,-24.8 4.53334,-24.8 0.53333,0 4.26666,2.4 8.26666,5.2 z"
         id="path332" />
      <path
         style="fill:#141393;fill-opacity:1;stroke-width:0.133333"
         d="m 446.16213,261.77392 -2.8,4.66667 -9.6,-0.93334 c -9.2,-0.66666 -10.13333,-0.53333 -18,3.6 -14,7.46667 -23.33333,21.06667 -29.33333,42.8 -4,14.26667 -4,41.06667 0,54 6.8,21.86667 20.13333,32.66667 35.6,28.53333 12.66667,-3.33333 24.53333,-14 30.26667,-27.33333 5.46666,-12.93333 8.13333,-29.33333 4.66666,-29.33333 -1.33333,0 -2.66666,2.93333 -4.13333,9.33333 -4.4,19.33334 -13.6,32.4 -24.26667,35.2 -17.06666,4.26667 -24.93333,-14 -24.93333,-57.86666 0,-24.4 1.86667,-34.53334 7.86667,-41.86667 6,-7.46667 10,-9.86667 16.8,-9.86667 5.06666,0 6.8,0.66667 10.53333,4.26667 2.53333,2.4 5.46667,6.53333 6.53333,9.2 1.2,2.8 3.33334,7.86667 4.93334,11.46667 4.66666,11.2 5.86666,6.66666 4,-16 -2,-27.06667 -2.8,-28.93334 -8.13334,-19.86667 z"
         id="path334" />
      <path
         style="fill:#141393;fill-opacity:1;stroke-width:0.133333"
         d="m 126.96215,343.77392 c 0.4,0.66667 1.73333,1.33333 2.8,1.33333 1.06667,0 1.86667,-0.66666 1.86667,-1.33333 0,-0.8 -1.2,-1.33333 -2.8,-1.33333 -1.46667,0 -2.26667,0.53333 -1.86667,1.33333 z"
         id="path336" />
    </g>
  </g>
  <path
     style="fill:#ffffff;fill-opacity:1;stroke-width:0.294795"
     d=""
     id="path1899" />
  <path
     style="fill:#ffffff;fill-opacity:1;stroke:#000000;stroke-width:0.147397;stroke-miterlimit:4;stroke-dasharray:none;stroke-opacity:1"
     d=""
     id="path1957" />
  <path
     style="fill:#ffffff;fill-opacity:1;stroke:#000000;stroke-width:0.147397;stroke-miterlimit:4;stroke-dasharray:none;stroke-opacity:1"
     d=""
     id="path1959" />
  <path
     style="fill:#ffffff;fill-opacity:1;stroke:#000000;stroke-width:0.104226;stroke-miterlimit:4;stroke-dasharray:none;stroke-opacity:1"
     d=""
     id="path2117" />
  <path
     style="fill:#ffffff;fill-opacity:1;stroke:#000000;stroke-width:0.104226;stroke-miterlimit:4;stroke-dasharray:none;stroke-opacity:1"
     d=""
     id="path2125" />
  <g
     inkscape:groupmode="layer"
     id="layer3"
     inkscape:label="Feathers"
     style="display:inline">
    <g
       id="g2395"
       style="stroke:#000000;stroke-width:0.5;stroke-miterlimit:4;stroke-dasharray:none;stroke-opacity:1">
      <g
         style="stroke:#000000;stroke-width:0.5;stroke-miterlimit:4;stroke-dasharray:none;stroke-opacity:1"
         id="g2312">
        <path
           style="fill:#ffffff;fill-opacity:1;stroke:#000000;stroke-width:0.5;stroke-miterlimit:4;stroke-dasharray:none;stroke-opacity:1"
           d="m 110.16503,160.5362 c -0.48769,-1.64684 -0.18717,-14.38396 0.3521,-14.92323 0.28469,-0.28469 0.76137,0.64475 1.05643,2.05985 0.43557,2.08903 0.43456,8.10295 -0.002,11.01677 -0.4296,2.86839 -0.91528,3.50597 -1.40667,1.84661 z"
           id="path2103" />
        <path
           style="fill:#ffffff;fill-opacity:1;stroke:#000000;stroke-width:0.5;stroke-miterlimit:4;stroke-dasharray:none;stroke-opacity:1"
           d="m 105.97309,157.73365 c -0.62653,-1.05587 -0.0802,-8.59938 1.02374,-14.13411 0.40328,-2.02199 0.45876,-2.12645 0.84019,-1.58188 0.52704,0.75246 0.77566,3.94499 0.51825,6.65493 -0.25648,2.70009 -0.99354,7.24694 -1.3567,8.36921 -0.2198,0.67927 -0.80048,1.07104 -1.02548,0.69185 z"
           id="path2105" />
        <path
           style="fill:#ffffff;fill-opacity:1;stroke:#000000;stroke-width:0.5;stroke-miterlimit:4;stroke-dasharray:none;stroke-opacity:1"
           d="m 101.94535,153.67548 c -0.29088,-0.46339 -0.35134,-5.81475 -0.0954,-8.4441 0.29373,-3.01753 0.99162,-7.0098 1.39402,-7.97439 0.55324,-1.32617 0.7757,-0.49448 0.87328,3.26482 0.10903,4.20055 -0.15634,6.88702 -1.0302,10.42903 -0.68645,2.78239 -0.85418,3.18267 -1.1417,2.72464 z"
           id="path2107" />
        <path
           style="fill:#ffffff;fill-opacity:1;stroke:#000000;stroke-width:0.5;stroke-miterlimit:4;stroke-dasharray:none;stroke-opacity:1"
           d="m 97.792103,145.42349 c 0.441801,-4.29053 3.167257,-15.41888 3.830397,-15.63992 0.67098,-0.22367 0.54308,3.31476 -0.26389,7.30021 -0.5857,2.89267 -2.187498,8.04057 -2.821965,9.06929 -0.677572,1.09861 -0.909401,0.87144 -0.744542,-0.72958 z"
           id="path2109" />
        <path
           style="fill:#ffffff;fill-opacity:1;stroke:#000000;stroke-width:0.5;stroke-miterlimit:4;stroke-dasharray:none;stroke-opacity:1"
           d="m 93.943664,141.53806 c 0,-0.40222 0.753096,-3.97136 1.170429,-5.54699 1.382012,-5.21776 3.705659,-11.46481 4.264441,-11.46481 0.611516,0 -0.130106,4.85998 -1.300345,8.5214 -0.766177,2.3972 -2.996266,7.69308 -3.455875,8.20681 -0.294801,0.32951 -0.67865,0.48991 -0.67865,0.28359 z"
           id="path2111" />
        <path
           style="fill:#ffffff;fill-opacity:1;stroke:#000000;stroke-width:0.5;stroke-miterlimit:4;stroke-dasharray:none;stroke-opacity:1"
           d="m 91.739343,132.99857 c 0.151982,-1.30499 1.58074,-4.69399 3.967287,-9.41034 2.005715,-3.96375 3.304468,-6.14932 3.654177,-6.14932 0.703043,0 -0.652989,4.30014 -2.59651,8.23383 -1.260276,2.5508 -3.581384,6.4066 -4.659202,7.73981 l -0.483637,0.59824 z"
           id="path2113" />
        <path
           style="fill:#ffffff;fill-opacity:1;stroke:#000000;stroke-width:0.5;stroke-miterlimit:4;stroke-dasharray:none;stroke-opacity:1"
           d="m 89.357737,127.24024 c 0,-0.8167 2.400468,-5.08482 5.233558,-9.30546 2.700831,-4.02359 4.39316,-6.14671 4.677475,-5.86813 0.391847,0.38394 -2.06781,5.45625 -4.020256,8.29058 -1.693326,2.45817 -4.409662,5.9548 -5.255438,6.7651 -0.63383,0.60725 -0.635339,0.60753 -0.635339,0.11791 z"
           id="path2115" />
        <path
           style="fill:#ffffff;fill-opacity:1;stroke:#000000;stroke-width:0.5;stroke-miterlimit:4;stroke-dasharray:none;stroke-opacity:1"
           d="m 87.98225,121.09449 c 0.455887,-1.81639 7.834597,-12.28064 10.209844,-14.47926 l 0.545948,-0.50535 v 0.4574 c 0,0.60615 -1.654101,3.88802 -3.010484,5.97303 -1.854119,2.85013 -7.10515,9.06763 -7.658125,9.06763 -0.125502,0 -0.162041,-0.21519 -0.08718,-0.51345 z"
           id="path2119" />
        <path
           style="fill:#ffffff;fill-opacity:1;stroke:#000000;stroke-width:0.5;stroke-miterlimit:4;stroke-dasharray:none;stroke-opacity:1"
           d="m 87.898579,114.76137 c 0,-0.0969 0.388094,-0.77695 0.862433,-1.51128 2.537983,-3.92906 11.035397,-13.37445 11.560098,-12.84974 0.1986,0.19859 -0.872112,2.0725 -2.470089,4.32304 -2.390889,3.36726 -5.737789,6.98431 -8.727936,9.43242 -0.971094,0.79506 -1.224506,0.92038 -1.224506,0.60556 z"
           id="path2121" />
        <path
           style="fill:#ffffff;fill-opacity:1;stroke:#000000;stroke-width:0.5;stroke-miterlimit:4;stroke-dasharray:none;stroke-opacity:1"
           d="m 87.898579,108.30819 c 0,-0.8743 4.884346,-6.48059 8.665431,-9.946256 4.63388,-4.247329 5.21072,-4.223222 2.021817,0.08449 -1.432787,1.935476 -6.221883,6.722196 -8.574166,8.569926 -1.836031,1.44221 -2.113082,1.61159 -2.113082,1.29183 z"
           id="path2123" />
        <path
           style="fill:#ffffff;fill-opacity:1;stroke:#000000;stroke-width:0.5;stroke-miterlimit:4;stroke-dasharray:none;stroke-opacity:1"
           d="m 88.10703,102.43854 c 0,-0.55291 5.501389,-6.735604 8.261109,-9.284192 2.732458,-2.523412 5.542601,-4.922162 5.645621,-4.819136 0.34333,0.343325 -1.6802,3.226207 -4.364539,6.218093 -1.608844,1.793167 -5.28389,5.103622 -7.66465,6.904255 -1.572657,1.18945 -1.877541,1.34875 -1.877541,0.98098 z"
           id="path2127" />
        <path
           style="fill:#ffffff;fill-opacity:1;stroke:#000000;stroke-width:0.5;stroke-miterlimit:4;stroke-dasharray:none;stroke-opacity:1"
           d="m 90.006365,94.87407 c 0.637653,-1.213786 6.631473,-6.8604 9.945058,-9.368968 2.537577,-1.921087 3.270337,-2.125198 2.285197,-0.636541 -1.67046,2.524237 -7.741451,7.885887 -11.229587,9.917513 -1.1652,0.678657 -1.318027,0.692097 -1.000668,0.088 z"
           id="path2129" />
        <path
           style="fill:#ffffff;fill-opacity:1;stroke:#000000;stroke-width:0.5;stroke-miterlimit:4;stroke-dasharray:none;stroke-opacity:1"
           d="m 92.27017,87.323785 c 2.028853,-2.093245 12.97314,-9.094015 13.79065,-8.821513 0.12426,0.04142 -0.40675,0.667165 -1.18004,1.390537 -2.51288,2.350681 -6.235609,4.871503 -10.257736,6.945967 -2.755835,1.421358 -3.386403,1.55134 -2.352874,0.485009 z"
           id="path2131" />
        <path
           sodipodi:nodetypes="ssssssssssssssscs"
           d="m 133.19306,184.45489 c -1.37211,-2.12978 -5.61493,-6.41874 -9.19344,-9.29341 -1.45924,-1.17222 -5.90326,-4.48973 -9.87562,-7.37223 -12.8618,-9.33306 -16.625704,-13.06445 -21.038841,-20.85708 -6.294853,-11.11531 -8.830792,-22.18082 -8.312696,-36.27222 0.506098,-13.76508 4.090947,-24.620311 11.749005,-37.632461 1.99706,-3.393295 5.514072,-8.534964 5.434732,-7.953307 -0.0239,0.17524 -1.00435,1.64549 -1.82927,3.008999 -2.055954,3.39828 -7.266584,13.119739 -8.888772,17.096622 -0.740592,1.815602 -1.919988,5.556272 -2.620879,8.312601 -4.139987,16.280926 -3.110755,32.729916 2.90187,46.377146 3.594947,8.15968 7.265114,13.18747 13.262391,18.16825 3.60472,2.99375 5.52846,4.33893 13.59082,9.50347 6.71679,4.3026 11.60503,7.85991 14.66552,10.67251 2.05772,1.89105 3.7853,4.20141 3.7853,5.06222 0,0.57439 -1.7601,2.89217 -2.21096,2.91149 -0.16214,0.007 -0.80076,-0.77272 -1.41916,-1.7326 z"
           style="fill:#ffffff;fill-opacity:1;stroke:#000000;stroke-width:0.5;stroke-miterlimit:4;stroke-dasharray:none;stroke-opacity:1"
           id="path2135" />
        <path
           style="fill:#ffffff;fill-opacity:1;stroke:#000000;stroke-width:0.5;stroke-miterlimit:4;stroke-dasharray:none;stroke-opacity:1"
           d="m 111.03666,54.485176 c 0,-0.265388 3.61713,-3.866732 6.13738,-6.110588 3.3034,-2.941123 8.86945,-7.020368 9.57917,-7.020368 0.68623,0 -0.2145,1.107516 -3.65995,4.500176 -3.56662,3.51198 -5.18143,4.809731 -9.11108,7.322182 -2.29003,1.46415 -2.94552,1.755362 -2.94552,1.308598 z"
           id="path2198" />
        <path
           style="fill:#ffffff;fill-opacity:1;stroke:#000000;stroke-width:0.5;stroke-miterlimit:4;stroke-dasharray:none;stroke-opacity:1"
           d="m 103.24874,60.797332 c 0.31756,-1.278008 2.25485,-5.702371 3.3416,-7.631508 1.56939,-2.785891 3.33612,-5.127202 3.87705,-5.137973 1.00288,-0.01997 -5.46626,12.163635 -6.95081,13.090749 -0.38114,0.238026 -0.40092,0.214296 -0.26784,-0.321268 z"
           id="path2200" />
        <path
           style="fill:#ffffff;fill-opacity:1;stroke:#000000;stroke-width:0.5;stroke-miterlimit:4;stroke-dasharray:none;stroke-opacity:1"
           d="m 97.077062,68.957426 c -0.0092,-0.891091 1.24427,-5.368666 2.2571,-8.062667 1.545268,-4.110211 4.615158,-9.275664 4.615158,-7.765538 0,1.582816 -5.215413,14.396835 -6.533801,16.053237 -0.322014,0.404572 -0.332024,0.397917 -0.338457,-0.225032 z"
           id="path2202" />
        <path
           style="fill:#ffffff;fill-opacity:1;stroke:#000000;stroke-width:0.5;stroke-miterlimit:4;stroke-dasharray:none;stroke-opacity:1"
           d="m 92.276054,76.053132 c 0,-1.595746 0.371168,-4.815337 0.830148,-7.200891 0.619634,-3.220553 2.634733,-8.112058 3.341834,-8.112058 0.46048,0 -0.0048,4.441947 -0.842889,8.046729 -0.839421,3.610563 -2.614585,8.420918 -3.107568,8.420918 -0.129738,0 -0.221525,-0.478438 -0.221525,-1.154698 z"
           id="path2204" />
        <path
           style="fill:#ffffff;fill-opacity:1;stroke:#000000;stroke-width:0.5;stroke-miterlimit:4;stroke-dasharray:none;stroke-opacity:1"
           d="m 88.075157,84.764186 c -0.192064,-0.550637 -0.27386,-2.13721 -0.27673,-5.367619 -0.0037,-4.154603 0.04137,-4.752574 0.479107,-6.357762 0.586217,-2.149673 1.210909,-3.616324 1.471664,-3.455169 0.377995,0.233614 0.469028,2.58323 0.243102,6.274595 -0.513836,8.395457 -1.117335,11.198969 -1.917143,8.905955 z"
           id="path2206" />
        <path
           style="fill:#ffffff;fill-opacity:1;stroke:#000000;stroke-width:0.5;stroke-miterlimit:4;stroke-dasharray:none;stroke-opacity:1"
           d="m 85.130322,92.816598 c -1.388165,-2.839397 -2.443024,-7.922851 -2.443024,-11.773135 0,-1.322706 0.08579,-2.376475 0.193474,-2.376475 0.831741,0 3.06306,10.873779 2.889448,14.081005 l -0.06713,1.24016 z"
           id="path2208" />
        <path
           style="fill:#ffffff;fill-opacity:1;stroke:#000000;stroke-width:0.5;stroke-miterlimit:4;stroke-dasharray:none;stroke-opacity:1"
           d="m 83.797262,99.251546 c -0.707913,-0.787031 -2.539157,-4.15066 -3.503958,-6.436072 -0.875287,-2.073371 -2.18883,-7.342182 -1.901963,-7.629049 0.608083,-0.608082 3.019942,4.260396 4.906656,9.904371 0.736529,2.203276 1.268956,4.629765 1.015876,4.629765 -0.05211,0 -0.284584,-0.211057 -0.516611,-0.469015 z"
           id="path2210" />
        <path
           style="fill:#ffffff;fill-opacity:1;stroke:#000000;stroke-width:0.5;stroke-miterlimit:4;stroke-dasharray:none;stroke-opacity:1"
           d="m 82.477961,108.11236 c -2.202373,-2.50203 -5.074737,-8.07736 -5.923303,-11.497287 -0.616789,-2.485805 -0.654022,-2.939597 -0.241189,-2.939597 0.450344,0 1.611156,1.966122 3.876738,6.566214 1.721957,3.4963 3.539347,7.94865 3.539347,8.6709 0,0.41179 -0.422522,0.14164 -1.251593,-0.80023 z"
           id="path2212" />
        <path
           style="fill:#ffffff;fill-opacity:1;stroke:#000000;stroke-width:0.5;stroke-miterlimit:4;stroke-dasharray:none;stroke-opacity:1"
           d="m 80.054585,112.15343 c -2.890307,-2.94898 -4.269889,-4.80139 -5.724747,-7.68682 -1.077925,-2.13785 -1.177247,-2.45309 -0.772903,-2.45309 0.769281,0 6.669646,7.25891 8.571533,10.54511 1.769051,3.05668 1.212547,2.94795 -2.073883,-0.4052 z"
           id="path2214" />
        <path
           style="fill:#ffffff;fill-opacity:1;stroke:#000000;stroke-width:0.5;stroke-miterlimit:4;stroke-dasharray:none;stroke-opacity:1"
           d="m 82.354965,119.81032 c -1.282918,-0.86901 -4.478328,-3.67623 -5.832806,-5.12422 -1.988187,-2.12545 -4.602887,-6.40811 -4.029119,-6.59937 0.31122,-0.10374 7.19617,6.83265 8.558666,8.62261 1.161958,1.5265 2.344071,3.4258 2.21348,3.55639 -0.05284,0.0528 -0.462439,-0.15209 -0.910221,-0.45541 z"
           id="path2216" />
        <path
           style="fill:#ffffff;fill-opacity:1;stroke:#000000;stroke-width:0.5;stroke-miterlimit:4;stroke-dasharray:none;stroke-opacity:1"
           d="m 82.791524,126.27063 c -2.164449,-1.6704 -6.791229,-6.50701 -8.049759,-8.41481 -1.379893,-2.09178 -2.350508,-3.94813 -2.162587,-4.13605 0.07371,-0.0737 1.749909,1.50682 3.724885,3.51229 3.535618,3.5902 6.125324,6.61256 7.401309,8.63783 1.067627,1.69455 0.873137,1.77984 -0.913848,0.40074 z"
           id="path2218" />
        <path
           style="fill:#ffffff;fill-opacity:1;stroke:#000000;stroke-width:0.5;stroke-miterlimit:4;stroke-dasharray:none;stroke-opacity:1"
           d="m 84.626511,133.87566 c -3.768376,-2.85179 -7.43623,-6.39779 -9.069223,-8.76795 -2.636776,-3.82706 -2.666692,-4.38093 -0.119022,-2.20362 3.529958,3.0168 8.480713,8.17301 10.343921,10.77318 1.169941,1.6327 0.819199,1.69291 -1.155676,0.19839 z"
           id="path2220" />
        <path
           style="fill:#ffffff;fill-opacity:1;stroke:#000000;stroke-width:0.5;stroke-miterlimit:4;stroke-dasharray:none;stroke-opacity:1"
           d="m 86.274027,140.17931 c -3.280991,-2.2257 -5.582888,-4.0862 -7.880683,-6.36953 -2.201706,-2.18784 -4.096765,-4.6976 -3.547047,-4.6976 1.312999,0 11.337534,8.73224 13.699941,11.93384 0.702397,0.9519 0.03134,0.69594 -2.272211,-0.86671 z"
           id="path2222" />
        <path
           style="fill:#ffffff;fill-opacity:1;stroke:#000000;stroke-width:0.5;stroke-miterlimit:4;stroke-dasharray:none;stroke-opacity:1"
           d="m 90.71267,147.07363 c -3.033797,-1.69745 -7.084192,-4.41735 -9.380305,-6.29901 -1.499179,-1.22858 -5.523957,-5.23442 -5.523957,-5.49797 0,-0.3474 1.120513,0.2526 3.856348,2.06493 6.065528,4.01806 12.402847,9.18634 12.402847,10.11491 0,0.31483 -0.218153,0.25319 -1.354933,-0.38286 z"
           id="path2224" />
        <path
           style="fill:#ffffff;fill-opacity:1;stroke:#000000;stroke-width:0.5;stroke-miterlimit:4;stroke-dasharray:none;stroke-opacity:1"
           d="m 94.149108,152.80968 c -1.908654,-0.78531 -6.013309,-3.01087 -8.228853,-4.46172 -4.216925,-2.76145 -8.444466,-6.31784 -7.497495,-6.30722 0.642297,0.007 1.885516,0.63951 5.333678,2.71275 5.563118,3.34487 11.569123,7.55685 11.804565,8.27847 0.116303,0.35647 -0.08061,0.32547 -1.411895,-0.22228 z"
           id="path2226" />
        <path
           style="fill:#ffffff;fill-opacity:1;stroke:#000000;stroke-width:0.5;stroke-miterlimit:4;stroke-dasharray:none;stroke-opacity:1"
           d="m 98.008463,159.15182 c -6.113214,-2.45857 -10.12918,-4.52196 -13.18454,-6.77415 -2.144745,-1.58095 -1.649641,-1.71502 1.624334,-0.43984 5.514476,2.14782 16.041903,7.70104 16.041903,8.46211 0,0.41782 -1.10343,0.11052 -4.481697,-1.24812 z"
           id="path2228" />
        <path
           style="fill:#ffffff;fill-opacity:1;stroke:#000000;stroke-width:0.5;stroke-miterlimit:4;stroke-dasharray:none;stroke-opacity:1"
           d="m 107.35316,166.11876 c -2.9658,-0.76662 -6.61019,-1.93683 -9.240472,-2.96711 -2.782255,-1.0898 -7.327025,-3.38415 -8.233823,-4.1567 l -0.625353,-0.53277 0.984893,0.12033 c 2.559543,0.31272 14.461035,4.84352 18.242875,6.94491 2.22631,1.23706 1.94349,1.38531 -1.12812,0.59134 z"
           id="path2230" />
        <path
           style="fill:#ffffff;fill-opacity:1;stroke:#000000;stroke-width:0.5;stroke-miterlimit:4;stroke-dasharray:none;stroke-opacity:1"
           d="m 93.526762,83.075756 c 0,-0.480884 1.288638,-1.657336 4.250821,-3.880752 3.265477,-2.451068 7.487187,-5.248053 8.645477,-5.72783 3.02672,-1.253711 -3.29256,4.20032 -8.280711,7.146888 -3.757318,2.219501 -4.615587,2.677253 -4.615587,2.461694 z"
           id="path2232" />
        <path
           style="fill:#ffffff;fill-opacity:1;stroke:#000000;stroke-width:0.5;stroke-miterlimit:4;stroke-dasharray:none;stroke-opacity:1"
           d="m 96.861981,76.607725 c 0,-0.337019 2.805089,-2.834294 5.219529,-4.646772 3.15656,-2.369571 8.2824,-5.801038 8.66545,-5.801038 1.22189,0 -3.90588,4.49835 -8.6737,7.609021 -2.589013,1.689153 -4.829668,3.021991 -5.080315,3.021991 -0.07203,0 -0.130964,-0.08244 -0.130964,-0.183202 z"
           id="path2234" />
        <path
           style="fill:#ffffff;fill-opacity:1;stroke:#000000;stroke-width:0.5;stroke-miterlimit:4;stroke-dasharray:none;stroke-opacity:1"
           d="m 100.45536,69.64794 c 0.10916,-0.341729 3.70476,-3.152814 6.30805,-4.931709 2.90367,-1.984149 7.27391,-4.458607 7.36927,-4.17253 0.33971,1.019126 -9.33087,7.798787 -12.94126,9.072607 -0.62309,0.219841 -0.79858,0.227382 -0.73606,0.03163 z"
           id="path2236" />
        <path
           style="fill:#ffffff;fill-opacity:1;stroke:#000000;stroke-width:0.5;stroke-miterlimit:4;stroke-dasharray:none;stroke-opacity:1"
           d="m 106.77125,61.142216 c 2.32931,-2.380438 10.73927,-8.323179 11.77868,-8.323179 0.36491,0 -1.28563,1.693024 -3.44847,3.537221 -2.06649,1.762042 -8.48099,5.843084 -9.18405,5.843084 -0.0993,0 0.28491,-0.475707 0.85384,-1.057126 z"
           id="path2238" />
      </g>
      <path
         sodipodi:nodetypes="cscscc"
         id="path1895"
         d="m 135.24944,186.77645 c -0.004,-0.24321 0.59473,-0.67434 0.99344,-1.16076 0.5368,-0.65488 1.20987,-1.91236 1.21772,-1.54252 0.006,0.2747 -0.41213,2.26877 -0.81235,2.72369 -0.4821,0.54799 -1.39361,0.27255 -1.39881,-0.0204 z"
         style="fill:#ffffff;fill-opacity:1;stroke:#000000;stroke-width:0.5;stroke-miterlimit:4;stroke-dasharray:none;stroke-opacity:1" />
      <path
         style="fill:#ffffff;fill-opacity:1;stroke:#000000;stroke-width:0.5;stroke-miterlimit:4;stroke-dasharray:none;stroke-opacity:1"
         d="m 206.08606,186.568 c 0.004,-0.24321 -0.59473,-0.67434 -0.99344,-1.16076 -0.5368,-0.65488 -1.20987,-1.91236 -1.21772,-1.54252 -0.006,0.2747 0.41213,2.26877 0.81235,2.72369 0.4821,0.54799 1.39361,0.27255 1.39881,-0.0204 z"
         id="path165"
         sodipodi:nodetypes="cscscc" />
    </g>
    <g
       style="stroke:#000000;stroke-width:0.5;stroke-miterlimit:4;stroke-dasharray:none;stroke-opacity:1"
       id="g2471"
       transform="matrix(-1,0,0,1,341.51918,0)">
      <g
         id="g2467"
         style="stroke:#000000;stroke-width:0.5;stroke-miterlimit:4;stroke-dasharray:none;stroke-opacity:1">
        <path
           id="path2397"
           d="m 110.16503,160.5362 c -0.48769,-1.64684 -0.18717,-14.38396 0.3521,-14.92323 0.28469,-0.28469 0.76137,0.64475 1.05643,2.05985 0.43557,2.08903 0.43456,8.10295 -0.002,11.01677 -0.4296,2.86839 -0.91528,3.50597 -1.40667,1.84661 z"
           style="fill:#ffffff;fill-opacity:1;stroke:#000000;stroke-width:0.5;stroke-miterlimit:4;stroke-dasharray:none;stroke-opacity:1" />
        <path
           id="path2399"
           d="m 105.97309,157.73365 c -0.62653,-1.05587 -0.0802,-8.59938 1.02374,-14.13411 0.40328,-2.02199 0.45876,-2.12645 0.84019,-1.58188 0.52704,0.75246 0.77566,3.94499 0.51825,6.65493 -0.25648,2.70009 -0.99354,7.24694 -1.3567,8.36921 -0.2198,0.67927 -0.80048,1.07104 -1.02548,0.69185 z"
           style="fill:#ffffff;fill-opacity:1;stroke:#000000;stroke-width:0.5;stroke-miterlimit:4;stroke-dasharray:none;stroke-opacity:1" />
        <path
           id="path2401"
           d="m 101.94535,153.67548 c -0.29088,-0.46339 -0.35134,-5.81475 -0.0954,-8.4441 0.29373,-3.01753 0.99162,-7.0098 1.39402,-7.97439 0.55324,-1.32617 0.7757,-0.49448 0.87328,3.26482 0.10903,4.20055 -0.15634,6.88702 -1.0302,10.42903 -0.68645,2.78239 -0.85418,3.18267 -1.1417,2.72464 z"
           style="fill:#ffffff;fill-opacity:1;stroke:#000000;stroke-width:0.5;stroke-miterlimit:4;stroke-dasharray:none;stroke-opacity:1" />
        <path
           id="path2403"
           d="m 97.792103,145.42349 c 0.441801,-4.29053 3.167257,-15.41888 3.830397,-15.63992 0.67098,-0.22367 0.54308,3.31476 -0.26389,7.30021 -0.5857,2.89267 -2.187498,8.04057 -2.821965,9.06929 -0.677572,1.09861 -0.909401,0.87144 -0.744542,-0.72958 z"
           style="fill:#ffffff;fill-opacity:1;stroke:#000000;stroke-width:0.5;stroke-miterlimit:4;stroke-dasharray:none;stroke-opacity:1" />
        <path
           id="path2405"
           d="m 93.943664,141.53806 c 0,-0.40222 0.753096,-3.97136 1.170429,-5.54699 1.382012,-5.21776 3.705659,-11.46481 4.264441,-11.46481 0.611516,0 -0.130106,4.85998 -1.300345,8.5214 -0.766177,2.3972 -2.996266,7.69308 -3.455875,8.20681 -0.294801,0.32951 -0.67865,0.48991 -0.67865,0.28359 z"
           style="fill:#ffffff;fill-opacity:1;stroke:#000000;stroke-width:0.5;stroke-miterlimit:4;stroke-dasharray:none;stroke-opacity:1" />
        <path
           id="path2407"
           d="m 91.739343,132.99857 c 0.151982,-1.30499 1.58074,-4.69399 3.967287,-9.41034 2.005715,-3.96375 3.304468,-6.14932 3.654177,-6.14932 0.703043,0 -0.652989,4.30014 -2.59651,8.23383 -1.260276,2.5508 -3.581384,6.4066 -4.659202,7.73981 l -0.483637,0.59824 z"
           style="fill:#ffffff;fill-opacity:1;stroke:#000000;stroke-width:0.5;stroke-miterlimit:4;stroke-dasharray:none;stroke-opacity:1" />
        <path
           id="path2409"
           d="m 89.357737,127.24024 c 0,-0.8167 2.400468,-5.08482 5.233558,-9.30546 2.700831,-4.02359 4.39316,-6.14671 4.677475,-5.86813 0.391847,0.38394 -2.06781,5.45625 -4.020256,8.29058 -1.693326,2.45817 -4.409662,5.9548 -5.255438,6.7651 -0.63383,0.60725 -0.635339,0.60753 -0.635339,0.11791 z"
           style="fill:#ffffff;fill-opacity:1;stroke:#000000;stroke-width:0.5;stroke-miterlimit:4;stroke-dasharray:none;stroke-opacity:1" />
        <path
           id="path2411"
           d="m 87.98225,121.09449 c 0.455887,-1.81639 7.834597,-12.28064 10.209844,-14.47926 l 0.545948,-0.50535 v 0.4574 c 0,0.60615 -1.654101,3.88802 -3.010484,5.97303 -1.854119,2.85013 -7.10515,9.06763 -7.658125,9.06763 -0.125502,0 -0.162041,-0.21519 -0.08718,-0.51345 z"
           style="fill:#ffffff;fill-opacity:1;stroke:#000000;stroke-width:0.5;stroke-miterlimit:4;stroke-dasharray:none;stroke-opacity:1" />
        <path
           id="path2413"
           d="m 87.898579,114.76137 c 0,-0.0969 0.388094,-0.77695 0.862433,-1.51128 2.537983,-3.92906 11.035397,-13.37445 11.560098,-12.84974 0.1986,0.19859 -0.872112,2.0725 -2.470089,4.32304 -2.390889,3.36726 -5.737789,6.98431 -8.727936,9.43242 -0.971094,0.79506 -1.224506,0.92038 -1.224506,0.60556 z"
           style="fill:#ffffff;fill-opacity:1;stroke:#000000;stroke-width:0.5;stroke-miterlimit:4;stroke-dasharray:none;stroke-opacity:1" />
        <path
           id="path2415"
           d="m 87.898579,108.30819 c 0,-0.8743 4.884346,-6.48059 8.665431,-9.946256 4.63388,-4.247329 5.21072,-4.223222 2.021817,0.08449 -1.432787,1.935476 -6.221883,6.722196 -8.574166,8.569926 -1.836031,1.44221 -2.113082,1.61159 -2.113082,1.29183 z"
           style="fill:#ffffff;fill-opacity:1;stroke:#000000;stroke-width:0.5;stroke-miterlimit:4;stroke-dasharray:none;stroke-opacity:1" />
        <path
           id="path2417"
           d="m 88.10703,102.43854 c 0,-0.55291 5.501389,-6.735604 8.261109,-9.284192 2.732458,-2.523412 5.542601,-4.922162 5.645621,-4.819136 0.34333,0.343325 -1.6802,3.226207 -4.364539,6.218093 -1.608844,1.793167 -5.28389,5.103622 -7.66465,6.904255 -1.572657,1.18945 -1.877541,1.34875 -1.877541,0.98098 z"
           style="fill:#ffffff;fill-opacity:1;stroke:#000000;stroke-width:0.5;stroke-miterlimit:4;stroke-dasharray:none;stroke-opacity:1" />
        <path
           id="path2419"
           d="m 90.006365,94.87407 c 0.637653,-1.213786 6.631473,-6.8604 9.945058,-9.368968 2.537577,-1.921087 3.270337,-2.125198 2.285197,-0.636541 -1.67046,2.524237 -7.741451,7.885887 -11.229587,9.917513 -1.1652,0.678657 -1.318027,0.692097 -1.000668,0.088 z"
           style="fill:#ffffff;fill-opacity:1;stroke:#000000;stroke-width:0.5;stroke-miterlimit:4;stroke-dasharray:none;stroke-opacity:1" />
        <path
           id="path2421"
           d="m 92.27017,87.323785 c 2.028853,-2.093245 12.97314,-9.094015 13.79065,-8.821513 0.12426,0.04142 -0.40675,0.667165 -1.18004,1.390537 -2.51288,2.350681 -6.235609,4.871503 -10.257736,6.945967 -2.755835,1.421358 -3.386403,1.55134 -2.352874,0.485009 z"
           style="fill:#ffffff;fill-opacity:1;stroke:#000000;stroke-width:0.5;stroke-miterlimit:4;stroke-dasharray:none;stroke-opacity:1" />
        <path
           id="path2423"
           style="fill:#ffffff;fill-opacity:1;stroke:#000000;stroke-width:0.5;stroke-miterlimit:4;stroke-dasharray:none;stroke-opacity:1"
           d="m 133.19306,184.45489 c -1.37211,-2.12978 -5.61493,-6.41874 -9.19344,-9.29341 -1.45924,-1.17222 -5.90326,-4.48973 -9.87562,-7.37223 -12.8618,-9.33306 -16.625704,-13.06445 -21.038841,-20.85708 -6.294853,-11.11531 -8.830792,-22.18082 -8.312696,-36.27222 0.506098,-13.76508 4.090947,-24.620311 11.749005,-37.632461 1.99706,-3.393295 5.514072,-8.534964 5.434732,-7.953307 -0.0239,0.17524 -1.00435,1.64549 -1.82927,3.008999 -2.055954,3.39828 -7.266584,13.119739 -8.888772,17.096622 -0.740592,1.815602 -1.919988,5.556272 -2.620879,8.312601 -4.139987,16.280926 -3.110755,32.729916 2.90187,46.377146 3.594947,8.15968 7.265114,13.18747 13.262391,18.16825 3.60472,2.99375 5.52846,4.33893 13.59082,9.50347 6.71679,4.3026 11.60503,7.85991 14.66552,10.67251 2.05772,1.89105 3.7853,4.20141 3.7853,5.06222 0,0.57439 -1.7601,2.89217 -2.21096,2.91149 -0.16214,0.007 -0.80076,-0.77272 -1.41916,-1.7326 z"
           sodipodi:nodetypes="ssssssssssssssscs" />
        <path
           id="path2425"
           d="m 111.03666,54.485176 c 0,-0.265388 3.61713,-3.866732 6.13738,-6.110588 3.3034,-2.941123 8.86945,-7.020368 9.57917,-7.020368 0.68623,0 -0.2145,1.107516 -3.65995,4.500176 -3.56662,3.51198 -5.18143,4.809731 -9.11108,7.322182 -2.29003,1.46415 -2.94552,1.755362 -2.94552,1.308598 z"
           style="fill:#ffffff;fill-opacity:1;stroke:#000000;stroke-width:0.5;stroke-miterlimit:4;stroke-dasharray:none;stroke-opacity:1" />
        <path
           id="path2427"
           d="m 103.24874,60.797332 c 0.31756,-1.278008 2.25485,-5.702371 3.3416,-7.631508 1.56939,-2.785891 3.33612,-5.127202 3.87705,-5.137973 1.00288,-0.01997 -5.46626,12.163635 -6.95081,13.090749 -0.38114,0.238026 -0.40092,0.214296 -0.26784,-0.321268 z"
           style="fill:#ffffff;fill-opacity:1;stroke:#000000;stroke-width:0.5;stroke-miterlimit:4;stroke-dasharray:none;stroke-opacity:1" />
        <path
           id="path2429"
           d="m 97.077062,68.957426 c -0.0092,-0.891091 1.24427,-5.368666 2.2571,-8.062667 1.545268,-4.110211 4.615158,-9.275664 4.615158,-7.765538 0,1.582816 -5.215413,14.396835 -6.533801,16.053237 -0.322014,0.404572 -0.332024,0.397917 -0.338457,-0.225032 z"
           style="fill:#ffffff;fill-opacity:1;stroke:#000000;stroke-width:0.5;stroke-miterlimit:4;stroke-dasharray:none;stroke-opacity:1" />
        <path
           id="path2431"
           d="m 92.276054,76.053132 c 0,-1.595746 0.371168,-4.815337 0.830148,-7.200891 0.619634,-3.220553 2.634733,-8.112058 3.341834,-8.112058 0.46048,0 -0.0048,4.441947 -0.842889,8.046729 -0.839421,3.610563 -2.614585,8.420918 -3.107568,8.420918 -0.129738,0 -0.221525,-0.478438 -0.221525,-1.154698 z"
           style="fill:#ffffff;fill-opacity:1;stroke:#000000;stroke-width:0.5;stroke-miterlimit:4;stroke-dasharray:none;stroke-opacity:1" />
        <path
           id="path2433"
           d="m 88.075157,84.764186 c -0.192064,-0.550637 -0.27386,-2.13721 -0.27673,-5.367619 -0.0037,-4.154603 0.04137,-4.752574 0.479107,-6.357762 0.586217,-2.149673 1.210909,-3.616324 1.471664,-3.455169 0.377995,0.233614 0.469028,2.58323 0.243102,6.274595 -0.513836,8.395457 -1.117335,11.198969 -1.917143,8.905955 z"
           style="fill:#ffffff;fill-opacity:1;stroke:#000000;stroke-width:0.5;stroke-miterlimit:4;stroke-dasharray:none;stroke-opacity:1" />
        <path
           id="path2435"
           d="m 85.130322,92.816598 c -1.388165,-2.839397 -2.443024,-7.922851 -2.443024,-11.773135 0,-1.322706 0.08579,-2.376475 0.193474,-2.376475 0.831741,0 3.06306,10.873779 2.889448,14.081005 l -0.06713,1.24016 z"
           style="fill:#ffffff;fill-opacity:1;stroke:#000000;stroke-width:0.5;stroke-miterlimit:4;stroke-dasharray:none;stroke-opacity:1" />
        <path
           id="path2437"
           d="m 83.797262,99.251546 c -0.707913,-0.787031 -2.539157,-4.15066 -3.503958,-6.436072 -0.875287,-2.073371 -2.18883,-7.342182 -1.901963,-7.629049 0.608083,-0.608082 3.019942,4.260396 4.906656,9.904371 0.736529,2.203276 1.268956,4.629765 1.015876,4.629765 -0.05211,0 -0.284584,-0.211057 -0.516611,-0.469015 z"
           style="fill:#ffffff;fill-opacity:1;stroke:#000000;stroke-width:0.5;stroke-miterlimit:4;stroke-dasharray:none;stroke-opacity:1" />
        <path
           id="path2439"
           d="m 82.477961,108.11236 c -2.202373,-2.50203 -5.074737,-8.07736 -5.923303,-11.497287 -0.616789,-2.485805 -0.654022,-2.939597 -0.241189,-2.939597 0.450344,0 1.611156,1.966122 3.876738,6.566214 1.721957,3.4963 3.539347,7.94865 3.539347,8.6709 0,0.41179 -0.422522,0.14164 -1.251593,-0.80023 z"
           style="fill:#ffffff;fill-opacity:1;stroke:#000000;stroke-width:0.5;stroke-miterlimit:4;stroke-dasharray:none;stroke-opacity:1" />
        <path
           id="path2441"
           d="m 80.054585,112.15343 c -2.890307,-2.94898 -4.269889,-4.80139 -5.724747,-7.68682 -1.077925,-2.13785 -1.177247,-2.45309 -0.772903,-2.45309 0.769281,0 6.669646,7.25891 8.571533,10.54511 1.769051,3.05668 1.212547,2.94795 -2.073883,-0.4052 z"
           style="fill:#ffffff;fill-opacity:1;stroke:#000000;stroke-width:0.5;stroke-miterlimit:4;stroke-dasharray:none;stroke-opacity:1" />
        <path
           id="path2443"
           d="m 82.354965,119.81032 c -1.282918,-0.86901 -4.478328,-3.67623 -5.832806,-5.12422 -1.988187,-2.12545 -4.602887,-6.40811 -4.029119,-6.59937 0.31122,-0.10374 7.19617,6.83265 8.558666,8.62261 1.161958,1.5265 2.344071,3.4258 2.21348,3.55639 -0.05284,0.0528 -0.462439,-0.15209 -0.910221,-0.45541 z"
           style="fill:#ffffff;fill-opacity:1;stroke:#000000;stroke-width:0.5;stroke-miterlimit:4;stroke-dasharray:none;stroke-opacity:1" />
        <path
           id="path2445"
           d="m 82.791524,126.27063 c -2.164449,-1.6704 -6.791229,-6.50701 -8.049759,-8.41481 -1.379893,-2.09178 -2.350508,-3.94813 -2.162587,-4.13605 0.07371,-0.0737 1.749909,1.50682 3.724885,3.51229 3.535618,3.5902 6.125324,6.61256 7.401309,8.63783 1.067627,1.69455 0.873137,1.77984 -0.913848,0.40074 z"
           style="fill:#ffffff;fill-opacity:1;stroke:#000000;stroke-width:0.5;stroke-miterlimit:4;stroke-dasharray:none;stroke-opacity:1" />
        <path
           id="path2447"
           d="m 84.626511,133.87566 c -3.768376,-2.85179 -7.43623,-6.39779 -9.069223,-8.76795 -2.636776,-3.82706 -2.666692,-4.38093 -0.119022,-2.20362 3.529958,3.0168 8.480713,8.17301 10.343921,10.77318 1.169941,1.6327 0.819199,1.69291 -1.155676,0.19839 z"
           style="fill:#ffffff;fill-opacity:1;stroke:#000000;stroke-width:0.5;stroke-miterlimit:4;stroke-dasharray:none;stroke-opacity:1" />
        <path
           id="path2449"
           d="m 86.274027,140.17931 c -3.280991,-2.2257 -5.582888,-4.0862 -7.880683,-6.36953 -2.201706,-2.18784 -4.096765,-4.6976 -3.547047,-4.6976 1.312999,0 11.337534,8.73224 13.699941,11.93384 0.702397,0.9519 0.03134,0.69594 -2.272211,-0.86671 z"
           style="fill:#ffffff;fill-opacity:1;stroke:#000000;stroke-width:0.5;stroke-miterlimit:4;stroke-dasharray:none;stroke-opacity:1" />
        <path
           id="path2451"
           d="m 90.71267,147.07363 c -3.033797,-1.69745 -7.084192,-4.41735 -9.380305,-6.29901 -1.499179,-1.22858 -5.523957,-5.23442 -5.523957,-5.49797 0,-0.3474 1.120513,0.2526 3.856348,2.06493 6.065528,4.01806 12.402847,9.18634 12.402847,10.11491 0,0.31483 -0.218153,0.25319 -1.354933,-0.38286 z"
           style="fill:#ffffff;fill-opacity:1;stroke:#000000;stroke-width:0.5;stroke-miterlimit:4;stroke-dasharray:none;stroke-opacity:1" />
        <path
           id="path2453"
           d="m 94.149108,152.80968 c -1.908654,-0.78531 -6.013309,-3.01087 -8.228853,-4.46172 -4.216925,-2.76145 -8.444466,-6.31784 -7.497495,-6.30722 0.642297,0.007 1.885516,0.63951 5.333678,2.71275 5.563118,3.34487 11.569123,7.55685 11.804565,8.27847 0.116303,0.35647 -0.08061,0.32547 -1.411895,-0.22228 z"
           style="fill:#ffffff;fill-opacity:1;stroke:#000000;stroke-width:0.5;stroke-miterlimit:4;stroke-dasharray:none;stroke-opacity:1" />
        <path
           id="path2455"
           d="m 98.008463,159.15182 c -6.113214,-2.45857 -10.12918,-4.52196 -13.18454,-6.77415 -2.144745,-1.58095 -1.649641,-1.71502 1.624334,-0.43984 5.514476,2.14782 16.041903,7.70104 16.041903,8.46211 0,0.41782 -1.10343,0.11052 -4.481697,-1.24812 z"
           style="fill:#ffffff;fill-opacity:1;stroke:#000000;stroke-width:0.5;stroke-miterlimit:4;stroke-dasharray:none;stroke-opacity:1" />
        <path
           id="path2457"
           d="m 107.35316,166.11876 c -2.9658,-0.76662 -6.61019,-1.93683 -9.240472,-2.96711 -2.782255,-1.0898 -7.327025,-3.38415 -8.233823,-4.1567 l -0.625353,-0.53277 0.984893,0.12033 c 2.559543,0.31272 14.461035,4.84352 18.242875,6.94491 2.22631,1.23706 1.94349,1.38531 -1.12812,0.59134 z"
           style="fill:#ffffff;fill-opacity:1;stroke:#000000;stroke-width:0.5;stroke-miterlimit:4;stroke-dasharray:none;stroke-opacity:1" />
        <path
           id="path2459"
           d="m 93.526762,83.075756 c 0,-0.480884 1.288638,-1.657336 4.250821,-3.880752 3.265477,-2.451068 7.487187,-5.248053 8.645477,-5.72783 3.02672,-1.253711 -3.29256,4.20032 -8.280711,7.146888 -3.757318,2.219501 -4.615587,2.677253 -4.615587,2.461694 z"
           style="fill:#ffffff;fill-opacity:1;stroke:#000000;stroke-width:0.5;stroke-miterlimit:4;stroke-dasharray:none;stroke-opacity:1" />
        <path
           id="path2461"
           d="m 96.861981,76.607725 c 0,-0.337019 2.805089,-2.834294 5.219529,-4.646772 3.15656,-2.369571 8.2824,-5.801038 8.66545,-5.801038 1.22189,0 -3.90588,4.49835 -8.6737,7.609021 -2.589013,1.689153 -4.829668,3.021991 -5.080315,3.021991 -0.07203,0 -0.130964,-0.08244 -0.130964,-0.183202 z"
           style="fill:#ffffff;fill-opacity:1;stroke:#000000;stroke-width:0.5;stroke-miterlimit:4;stroke-dasharray:none;stroke-opacity:1" />
        <path
           id="path2463"
           d="m 100.45536,69.64794 c 0.10916,-0.341729 3.70476,-3.152814 6.30805,-4.931709 2.90367,-1.984149 7.27391,-4.458607 7.36927,-4.17253 0.33971,1.019126 -9.33087,7.798787 -12.94126,9.072607 -0.62309,0.219841 -0.79858,0.227382 -0.73606,0.03163 z"
           style="fill:#ffffff;fill-opacity:1;stroke:#000000;stroke-width:0.5;stroke-miterlimit:4;stroke-dasharray:none;stroke-opacity:1" />
        <path
           id="path2465"
           d="m 106.77125,61.142216 c 2.32931,-2.380438 10.73927,-8.323179 11.77868,-8.323179 0.36491,0 -1.28563,1.693024 -3.44847,3.537221 -2.06649,1.762042 -8.48099,5.843084 -9.18405,5.843084 -0.0993,0 0.28491,-0.475707 0.85384,-1.057126 z"
           style="fill:#ffffff;fill-opacity:1;stroke:#000000;stroke-width:0.5;stroke-miterlimit:4;stroke-dasharray:none;stroke-opacity:1" />
      </g>
    </g>
  </g>
  <g
     inkscape:groupmode="layer"
     id="layer7"
     inkscape:label="Africa"
     transform="matrix(0.18251079,0,0,0.18251079,131.61,65.987448)"
     style="display:inline">
    <path
       id="path242-2"
       d="m 159.90965,-127.0184 c 0.2723,5.80248 -0.1359,8.28926 -2.3168,11.19048 -4.0884,5.66432 -3.6796,7.3222 3.8158,12.84836 6.13246,4.559104 7.35906,4.973544 16.35342,4.973544 7.768,0 10.08466,0.55264 11.85626,2.62494 7.35906,8.703706 10.22086,11.052366 17.58006,13.953626 4.49706,1.65783 10.62966,3.31566 13.62772,3.730166 4.6336,0.55253 5.9964,0.13801 8.72186,-2.901276 2.862,-3.17755 3.1345,-4.00648 1.6354,-7.18404 -3.27066,-7.460316 0.8177,-10.776026 13.76426,-10.914196 5.0423,0 7.08636,0.69078 10.22076,3.73021 6.4052,6.216936 14.71816,8.979986 30.11768,10.085256 12.67396,0.82889 14.99056,0.5526 22.34976,-2.2105 7.6316,-2.901206 8.8582,-2.901206 16.76231,-1.3815 6.26876,1.24334 9.26696,1.3815 11.31116,0.27653 1.6353,-0.828936 4.08836,-1.519716 5.72366,-1.519716 2.7256,0 2.8618,0.41455 1.9079,10.637926 -0.9539,11.052306 -2.3168,15.611402 -4.63346,15.611402 -0.8177,0 -3.5433,-3.31571 -6.1326,-7.460316 -2.5892,-4.14466 -5.31476,-8.012976 -6.13246,-8.427426 -2.1806,-1.38155 -3.1345,2.901226 -2.1806,9.532646 1.0903,7.184036 5.99636,15.058792 16.62612,26.387438 11.31106,12.157586 13.76406,15.887736 14.58176,22.795452 0.6814,4.97359 1.9079,7.18404 6.81386,11.8812462 5.4513,5.11171 6.269,6.63143 7.6317,15.1969562 2.18036,12.5720866 4.63336,17.5456326 11.17486,22.1046826 3.95216,2.7631 5.72366,5.249875 7.22276,10.223466 3.6795,12.710151 8.85816,19.479737 16.08086,21.275757 2.04416,0.41461 5.04246,2.90125 6.67766,5.388 1.7717,2.348596 6.13256,7.184016 9.81206,10.499716 5.99626,5.526196 6.26886,6.216966 4.3609,8.427376 -3.4069,3.8684 -2.453,6.631476 3.81586,9.394536 3.1344,1.51971 6.8139,3.86834 8.1767,5.52617 2.31676,2.486778 3.54326,2.763128 12.94642,2.072308 7.4953,-0.69076 11.58376,-1.657888 14.85446,-3.868308 2.453,-1.796 7.22276,-3.592 10.76596,-4.14464 3.407,-0.41461 8.99436,-2.0723 12.53766,-3.59201 3.407,-1.519656 6.67766,-2.210426 7.22286,-1.657826 2.0441,2.072306 -0.9541,15.335084 -4.49716,20.032324 -4.2247,5.80253 -7.3591,13.95361 -8.5857,22.51914 -0.6814,4.28283 -2.86176,9.67084 -5.99626,14.50622 -2.7256,4.14464 -6.13256,10.63789 -7.63166,14.36807 -2.0441,5.38799 -3.952,7.7366 -8.1767,10.08524 -9.26686,5.24988 -24.53008,21.69028 -35.84124,38.68323 -3.1344,4.69722 -6.9502,9.39447 -8.4493,10.49971 -5.58736,3.86833 -10.90226,12.29577 -10.90226,17.13117 0,2.48676 -0.81766,6.07875 -1.90786,7.73658 -3.2707,5.24994 -3.9521,14.09177 -1.4991,19.47972 1.7717,3.59207 1.9079,5.38807 0.8177,7.59852 -1.7716,3.31579 -1.9079,9.39451 -0.2723,10.49976 0.6814,0.41477 1.7716,2.62488 2.1805,5.11174 0.54506,2.34859 2.31666,5.52621 3.95196,7.18397 6.814,6.63139 10.35716,33.01893 5.7238,43.93307 -1.2265,2.9013 -2.1805,7.04589 -2.1805,9.39446 0,3.73024 -0.4087,4.14462 -3.1344,3.45382 -2.1805,-0.55257 -3.9522,0.13807 -6.40516,2.90137 -1.9078,1.93408 -6.6776,5.1117 -10.49336,6.76952 -4.7698,2.21049 -11.44746,7.46027 -19.62426,15.47327 -13.76402,13.53915 -14.44542,15.47323 -9.94826,24.86768 1.7716,3.45394 2.453,7.87488 2.3167,12.84839 -0.2728,11.60502 -1.9078,14.36808 -10.35706,18.51272 -6.13266,2.9012 -7.90426,4.55907 -10.35716,9.67082 -1.4991,3.45383 -3.4071,8.98001 -4.0885,12.15759 -1.63516,6.90763 -10.22086,23.48622 -16.62592,31.6373 -2.3168,3.03939 -10.22101,10.77597 -17.58011,17.13116 -14.71806,12.84827 -21.25946,15.88771 -28.75482,13.26282 -5.17856,-1.79605 -12.12876,-1.93423 -16.48962,-0.27615 -1.7717,0.55257 -6.8141,1.51976 -11.44746,2.07233 -7.4953,0.82893 -8.5857,0.55257 -11.85636,-2.48683 -2.7256,-2.62493 -3.6795,-4.83537 -3.6795,-8.70375 -0.1359,-5.11164 -3.2706,-16.16397 -6.54136,-22.10455 -0.9539,-1.65794 -1.6353,-3.86832 -1.6353,-4.83539 0,-1.10536 -3.2707,-6.07887 -7.35906,-11.05233 -9.8121,-11.88132 -12.12866,-17.26934 -14.99066,-32.88085 -1.3628,-7.18397 -3.2707,-15.88772 -4.3609,-19.34161 -2.1805,-6.49314 -18.94272,-41.16988 -21.12332,-43.51857 -0.6813,-0.6907 -1.2265,-9.67083 -1.2265,-20.03229 0,-18.92721 0.6815,-22.24286 5.9964,-26.94016 2.9981,-2.62489 8.99436,-11.32865 8.99436,-12.98647 0,-0.82893 -2.1804,-7.18406 -4.7698,-13.95358 -2.72546,-6.9077 -4.76966,-14.92071 -4.76966,-17.96009 0,-9.53264 -10.90236,-31.36094 -19.76032,-39.37401 -0.8177,-0.82888 -3.8159,-4.42077 -6.814,-8.15102 -2.8619,-3.59207 -6.67768,-8.15108 -8.44935,-9.94708 -4.08836,-4.14465 -3.95204,-8.84189 0.68144,-19.47978 3.40692,-7.59852 3.67951,-9.53265 2.86185,-17.40753 -1.09029,-10.91411 -5.5875,-19.61787 -12.26513,-23.48618 l -4.90607,-2.90123 -7.08654,3.17753 c -3.95215,1.65782 -8.04051,2.76305 -8.85821,2.48676 -0.95398,-0.41461 -2.99807,-3.45388 -4.63343,-6.90771 -1.6353,-3.45383 -5.5875,-8.42742 -8.85816,-11.19042 -6.81395,-5.66437 -12.537726,-6.35513 -22.077222,-3.03948 -2.99818,1.1053 -7.08654,2.34865 -9.130806,2.76312 -2.04415,0.55259 -7.76786,3.73018 -12.673926,7.04589 l -8.994426,6.35507 -10.629776,-1.65782 c -9.40328,-1.51972 -11.992546,-1.38154 -25.211602,1.38153 l -14.5819262,3.03935 -9.8120766,-6.49318 c -5.4511752,-3.59208 -13.2190462,-8.70372 -17.3074022,-11.46684 -11.583806,-7.46037 -17.716266,-13.8155 -17.716266,-18.37451 0,-4.28276 -10.357246,-23.62443 -15.535842,-28.874218 -1.63535,-1.79605 -4.90606,-4.97364 -7.2228,-7.04588 -3.679566,-3.315716 -4.224676,-4.697296 -4.906116,-15.058842 -0.95392,-12.019416 -0.95392,-11.881296 6.132566,-20.861272 1.77167,-2.34865 2.72564,-5.24992 2.58938,-8.01297 -0.81771,-9.118211 -0.54518,-22.242847 0.81759,-37.9924196 1.22661,-15.7495762 1.63541,-16.9929662 6.405156,-24.1770024 2.72559,-4.1446 5.72371,-9.256366 6.54142,-11.190476 0.81765,-2.07232 3.27065,-4.83543 5.314856,-6.21693 2.04421,-1.38156 5.04239,-5.111706 6.67775,-8.427426 2.725476,-5.526196 8.449296,-11.466806 11.174837,-11.466806 0.68133,0 5.996245,-3.17755 11.719966,-7.184036 15.1269818,-10.223366 17.7163618,-13.539076 21.940992,-27.354492 2.998176,-9.808976 10.084606,-18.2364 16.489752,-19.75607 2.04421,-0.55264 6.67769,-4.83537 11.447486,-10.63791 7.904136,-9.80893 7.904136,-9.80893 10.902366,-7.32216 1.49898,1.51972 6.813846,3.45388 11.583696,4.42094 8.312986,1.65788 8.858156,1.51972 13.627906,-1.65783 2.86185,-1.93416 9.539536,-4.69727 14.990772,-6.21699 5.5873,-1.65783 11.038596,-3.86827 12.401366,-5.11166 1.90794,-1.65788 6.67763,-2.07233 26.71069,-2.07233 13.35543,0 25.34793,-0.69077 26.43816,-1.38155 3.95208,-2.48677 7.49538,1.65789 7.90428,9.67081 z m -213.004305,67.557412 c -1.22656,2.21044 -3.40698,0.41456 -2.45306,-2.07233 0.54463,-1.38154 1.2265,-1.65782 2.04415,-0.82894 0.81771,0.82894 0.95403,2.07233 0.40875,2.90127 z m 9.948336,16.992962 c -0.95397,2.62494 -5.178586,3.03938 -5.178586,0.55259 0,-1.38155 1.226551,-2.21044 2.861846,-2.21044 1.63542,0 2.58933,0.69073 2.31674,1.65782 z m -5.178586,8.01293 c 0,2.763096 -5.99631,8.289256 -8.994425,8.289256 -3.134391,0 -2.180421,-3.31571 2.316735,-8.012916 4.49727,-4.55912 6.67769,-4.69728 6.67769,-0.27654 z m -17.171206,8.151086 c 0.40875,0.69077 -0.13588,1.93416 -1.22645,2.90126 -1.771665,1.381556 -2.044255,1.243386 -2.044255,-1.24338 0,-2.90127 1.907885,-3.86838 3.270705,-1.65788 z M 98.58396,162.00032 c 0.54517,3.03935 -2.180416,4.42089 -4.633476,2.34859 -1.77157,-1.5197 -2.45306,-1.38158 -3.54325,0.69076 -1.22655,2.34866 -1.49898,2.34866 -3.95205,0 -4.360946,-4.00641 -3.134496,-5.388 4.49717,-5.388 5.58745,0 7.222746,0.5526 7.631606,2.34865 z m 36.79541,14.64431 c 0.27286,0.96707 -0.8177,1.65784 -2.31674,1.65784 -2.86191,0 -3.67956,-1.51966 -1.90794,-3.31572 1.22656,-1.24334 3.54324,-0.27604 4.22468,1.65788 z m -11.99255,15.61147 c 0,4.42093 -2.58933,8.15108 -5.45119,8.15108 -3.40703,0 -3.54324,-3.17758 -0.27286,-7.59857 2.86186,-4.14452 5.72372,-4.42083 5.72372,-0.55251 z m 388.80334,4.83537 c 1.3628,1.38157 -1.6354,6.07883 -3.8158,6.07883 -2.8619,0 -3.8158,-2.62494 -2.0442,-4.83534 1.7716,-2.21055 4.3608,-2.62493 5.86,-1.24349 z m -13.08276,55.81435 c -0.6813,7.32215 -10.49336,3.31571 -10.49336,-4.28275 0,-2.2105 0.9538,-4.421 2.453,-5.24982 3.13436,-1.79607 8.58556,4.55907 8.04036,9.53257 z m -89.67128,1.24377 c 1.499,2.76307 0.6813,4.28282 -2.1806,4.28282 -0.9538,0 -1.7715,-1.51975 -1.7715,-3.45388 0,-4.0064 2.0442,-4.55907 3.9521,-0.82894 z m 45.65324,27.90679 c 3.1345,3.73013 1.0902,9.53264 -3.4069,9.53264 -2.5893,0 -2.8619,-0.55262 -2.0443,-4.28276 0.4088,-2.34858 0.8178,-5.24988 0.8178,-6.21689 0,-2.76312 1.7716,-2.34874 4.6334,0.96701 z m -27.80082,10.3612 c 0,1.93413 1.6353,4.97357 3.6795,6.9077 2.7255,2.62494 3.2707,3.73019 2.0442,4.97357 -0.954,0.96706 -1.6354,2.76311 -1.6354,4.00644 0,3.03939 -1.7716,4.28282 -4.6335,3.17763 -1.90786,-0.69081 -1.90786,-1.24338 -0.13586,-4.69727 2.72566,-5.24987 2.58936,-5.388 -1.3627,-6.90775 -2.5892,-0.96706 -3.4069,-2.34857 -3.4069,-5.24983 0,-4.0065 2.3167,-7.59845 4.3608,-6.35507 0.54516,0.41477 1.09026,2.21039 1.09026,4.14458 z m 44.69934,4.42088 c 0.2729,4.42101 -0.1359,6.07883 -1.77156,6.63145 -3.1345,1.24343 -5.1786,-1.38151 -5.0424,-6.21696 0.1359,-5.388 1.3629,-7.32213 4.0884,-6.76956 1.63536,0.2756 2.45306,2.2105 2.72556,6.35507 z m -0.9539,23.34805 c 1.499,4.28276 3.952,19.34164 4.906,31.08473 0.5452,7.46034 0.4088,8.01302 -2.8618,9.53259 -2.0442,0.96706 -3.54326,2.76308 -3.54326,4.42095 0,1.38156 -1.3628,4.55913 -2.9981,6.9078 -2.5894,3.59202 -6.814,14.50617 -11.85626,29.97939 -0.6814,1.93424 -2.9981,7.59862 -5.4512,12.71021 -4.22466,9.25638 -8.17676,13.53919 -12.67382,13.53919 -1.3629,0 -3.6796,0.69076 -5.1787,1.65777 -2.0441,1.24338 -3.2707,1.24338 -5.72366,-0.13752 -4.6335,-2.34859 -6.9502,-6.63139 -8.1768,-14.64446 -0.5452,-3.86826 -1.3627,-8.84178 -1.77156,-11.19035 -0.9539,-4.42099 2.99816,-12.7102 8.04036,-16.99302 2.5894,-2.21051 2.7257,-6.217 0.6815,-14.78253 -1.4991,-5.66431 -1.2265,-6.90775 1.4991,-12.01939 3.81576,-7.3222 7.49526,-10.63785 11.71986,-10.63785 4.36096,0 13.62792,-8.7037 15.53582,-14.64438 0.8177,-2.62494 2.7256,-5.38813 4.0884,-6.07878 1.499,-0.82899 3.27066,-3.86847 4.08826,-6.90774 1.2266,-4.55908 2.0443,-5.5262 4.9061,-5.5262 2.3168,0 3.6795,1.10519 4.76976,3.73019 z m -57.50956,46.9729 c 1.6353,6.07886 0.1359,8.84194 -3.6795,6.4933 -2.8619,-1.93413 -3.6795,-6.90775 -1.6353,-9.67081 2.5892,-3.0394 3.8157,-2.34864 5.3148,3.17751 z m 68.00302,8.98018 c -0.95396,2.76301 -6.54136,3.1774 -6.54136,0.55257 0,-1.51975 1.2265,-2.2105 3.5433,-2.2105 2.1804,0 3.27066,0.69075 2.99806,1.65793 z m -11.31102,6.63127 c -0.6815,1.10525 -1.4991,1.10525 -2.3169,0.27614 -0.8176,-0.82898 -0.9539,-2.21054 -0.4087,-3.03937 0.6814,-1.10525 1.4992,-1.10525 2.3168,-0.27615 0.81766,0.82889 0.95386,2.21039 0.4087,3.03932 z"
       style="fill:#f7d118;fill-opacity:1;stroke-width:0.27395641;stroke:#000000;stroke-opacity:1;stroke-miterlimit:4;stroke-dasharray:none"
       sodipodi:nodetypes="cccscccccccccccscssccccccccccccccccccscccccccscccccccssccccccccccccccccsccccscscsccsccccccsccccccccccsccccccccssscccccccccscccccsccssssssscssccscccccsccssccsccccssccscccssccscscccsscccscccccccccccscccscccccccsccsscccccccsscsscsss" />
  </g>
  <g
     inkscape:groupmode="layer"
     id="layer8"
     inkscape:label="Water"
     style="display:inline">
    <g
       transform="matrix(0.18251079,0,0,0.18251079,95.66041,32.40524)"
       style="fill:#171695;fill-opacity:1"
       id="g2642">
      <path
         id="path244-3"
         d="m 258.4775,294.78182 c 0.53333,4.26666 0.93333,10.4 0.8,13.73333 -0.13333,5.06666 0.53333,6.8 4.26667,11.33333 6.26666,7.33333 8,5.46667 10.13333,-10.93333 l 1.73333,-12.93333 -5.06666,-4.4 c -3.33334,-2.8 -6.53334,-4.4 -9.06667,-4.4 h -4 z"
         style="fill:#171695;fill-opacity:1;stroke-width:0.133333" />
      <path
         id="path246-8"
         d="m 547.94416,366.38181 c -10.4,3.86667 -12.93333,8 -12.93333,21.60001 0,6.53333 0.8,11.73333 2.13333,14.66666 2.26667,4.8 5.06667,5.86667 6.4,2.4 0.66667,-1.86666 2.13333,-2 8.8,-1.33333 6.8,0.8 8.26667,0.53334 10.53333,-1.73333 2.26667,-2.26667 2.66667,-3.86667 2,-8.66667 -1.2,-8.13334 0.26667,-12.66667 4.13334,-14.13334 4.66666,-1.73333 4.4,-6.4 -0.26667,-7.6 -2.13333,-0.39998 -5.46667,-2.53333 -7.46667,-4.66666 -2.13333,-2 -4.26666,-3.6 -4.66666,-3.6 -0.53334,0.1333 -4.4,1.46666 -8.66667,3.06666 z"
         style="fill:#171695;fill-opacity:1;stroke-width:0.133333" />
      <path
         id="path248-0"
         d="m 519.81083,405.58182 c -0.39998,0.39998 -0.8,8.26666 -0.8,17.46666 v 16.8 l 5.06666,7.2 c 2.66667,4 6.13334,9.33334 7.6,12 2.13334,3.86667 3.46667,4.8 6.66667,4.8 3.73333,0 4,-0.40003 3.86667,-4.66666 -0.26667,-5.73334 -2.4,-13.73334 -5.06667,-19.2 -1.06667,-2.26667 -2.4,-8.8 -2.93333,-14.53334 -0.66667,-8.93333 -1.33334,-11.06666 -4.66667,-14.93333 -3.73333,-4.13333 -8.26667,-6.53333 -9.73333,-4.93333 z"
         style="fill:#171695;fill-opacity:1;stroke-width:0.133333" />
      <path
         id="path250-4"
         d="m 559.67749,455.44848 c -0.26667,0.93334 -1.06666,9.06667 -1.73333,18 -1.33333,16.93333 -0.13331,27.73333 4.26667,38.4 2.26666,5.46667 7.73333,7.6 11.06666,4.26667 1.86667,-1.73334 1.86667,-2.66667 0.39998,-6.26667 -1.46666,-3.46667 -1.46666,-6.66667 0,-17.46667 1.46667,-11.86666 1.33334,-14.13333 -0.80001,-22.13333 -1.19997,-5.06666 -3.46663,-10.66666 -4.79997,-12.8 -2.66666,-3.73333 -7.46666,-4.8 -8.4,-2 z"
         style="fill:#171695;fill-opacity:1;stroke-width:0.133333" />
    </g>
  </g>
  <g
     inkscape:groupmode="layer"
     id="layer6"
     inkscape:label="Star"
     style="display:inline">
    <path
       id="path252"
       style="fill:#ba122b;fill-opacity:1;stroke-width:0.0238348"
       d="m 157.70701,211.23989 c -0.56045,2.35196 -0.0665,4.80777 0.58157,7.08371 1.94262,4.20574 5.79726,7.66815 10.4635,8.39417 5.60064,1.0119 11.72624,-1.96636 14.14127,-7.17171 1.43286,-3.19454 1.7217,-6.92312 0.79484,-10.30242 -1.31978,-4.86072 -5.73331,-8.50998 -10.6329,-9.36119 -4.42579,-0.88028 -9.35972,0.59873 -12.22945,4.16627 -1.69647,2.04056 -2.6808,4.59353 -3.11883,7.19117 z" />
    <path
       sodipodi:nodetypes="ccccccccccccc"
       d="m 147.93703,244.45787 8.15829,-26.38067 c -6.93169,-6.55975 -14.60638,-12.15721 -22.23801,-17.84998 9.46492,-0.69367 18.94649,-0.82198 28.43026,-1.00652 l 8.67141,-26.48165 c 3.66498,8.59768 6.45607,17.50217 9.37649,26.36839 l 27.74195,0.80437 c -6.86231,6.12246 -14.26447,11.55926 -21.58966,17.10276 2.46443,9.27775 5.25661,18.45889 8.02241,27.64943 l -23.24358,-16.50769 -23.14714,16.56488 -0.12883,-0.0773 z"
       style="fill:#ffffff;fill-opacity:1;stroke:#000000;stroke-width:0.147397;stroke-miterlimit:4;stroke-dasharray:none;stroke-opacity:1"
       id="path1947" />
    <path
       d="m 168.7414,198.87031 c -4.28607,0.96187 -8.15818,3.98537 -9.85237,8.19303 -1.48558,3.53 -1.57796,7.57595 -0.60045,11.26026 2.92011,3.98122 6.97837,7.652 11.98625,8.21646 4.68137,0.56633 9.24996,-2.12224 11.91767,-5.9662 2.93953,-4.0944 4.16571,-9.85612 1.95626,-14.58309 -1.7313,-3.69191 -5.3861,-6.17906 -9.21553,-7.03113 -2.04086,-0.35118 -4.13938,-0.25806 -6.19183,-0.0893 z"
       style="display:inline;fill:#ba122b;fill-opacity:1;stroke-width:0.0252864"
       id="path1068" />
  </g>
</svg>
