<?xml version="1.0" encoding="UTF-8" standalone="no"?>
<!-- Created with Inkscape (http://www.inkscape.org/) -->
<svg
   xmlns:svg="http://www.w3.org/2000/svg"
   xmlns="http://www.w3.org/2000/svg"
   version="1.0"
   width="341.83"
   height="335.72">
  <path
     d="M 171.2,287.62 C 153.38,265.07 106.88,252.95 85.761,241.34 C 85.471,241.18 85.201,241 84.911,240.87 C 35.451,215.05 49.511,173.13 49.511,173.13 C 59.221,134.8 58.701,121.87 58.701,121.87 C 63.301,66.14 37.251,35.5 37.251,35.5 L 72.361,-5.6843e-14 L 270.03,-5.6843e-14 L 305.15,35.5 C 305.15,35.5 279.1,66.14 283.7,121.87 C 283.7,121.87 283.17,134.8 292.87,173.13 C 292.87,173.13 306.93,215.05 257.48,240.87 C 257.2,241 256.92,241.18 256.63,241.34 C 235.51,252.95 189,265.07 171.2,287.62"
     id="path2628"
     style="fill:#fac528;fill-opacity:1;fill-rule:nonzero;stroke:none" />
  <path
     d="M 171.18,275.29 C 154.45,254.1 110.72,245.35 90.871,234.44 C 90.601,234.29 90.331,234.13 90.071,234 C 43.581,209.73 59.001,170.34 59.001,170.34 C 67.951,134.3 66.931,121.6 66.931,121.6 C 71.181,69.24 47.671,37.39 47.671,37.39 L 76.051,7.59 L 266.5,7.59 L 295.18,36.39 C 295.18,36.39 271.26,69.09 275.51,121.48 C 275.51,121.48 274.36,134.3 283.3,170.34 C 283.3,170.34 298.77,209.73 252.28,234 C 252.02,234.13 251.76,234.29 251.5,234.44 C 231.63,245.35 187.91,254.1 171.18,275.29"
     id="path2630"
     style="fill:#1e4ca1;fill-opacity:1;fill-rule:nonzero;stroke:none" />
  <path
     d="M 48.411,177.47 C 47.811,180.85 47.451,184.13 47.451,187.44 C 47.451,205.67 57.861,224.87 80.321,238.2 C 102.77,251.55 153.63,264.57 170.88,285.73 C 188.12,264.57 238.98,251.55 261.43,238.2 C 283.88,224.87 294.31,205.67 294.31,187.44 C 294.31,184.29 293.97,181.17 293.43,177.97 L 293.98,177.68 L 293.01,172.79 C 297.56,158.8 305.05,152.62 313.83,152.62 C 322.62,152.62 325.55,158.15 327.5,165.63 C 329.46,173.12 329.46,177.34 332.06,181.9 C 334.66,186.47 342.13,201.1 341.82,204.69 C 341.5,208.27 338.57,212.83 336.3,214.13 C 334.01,215.43 328.8,217.7 328.8,217.7 C 331.08,231.37 326.85,247.32 311.22,260.98 C 295.61,274.65 271.52,287.34 241.91,299.39 C 212.3,311.43 197.98,314.69 170.96,335.52 C 143.95,314.69 129.63,311.43 100.02,299.39 C 70.401,287.34 46.321,274.65 30.701,260.98 C 15.071,247.32 10.851,231.37 13.121,217.7 C 13.121,217.7 7.9106,215.43 5.6306,214.13 C 3.3606,212.83 0.43057,208.27 0.10057,204.69 C -0.22943,201.1 7.2606,186.47 9.8606,181.9 C 12.471,177.34 12.471,173.12 14.421,165.63 C 16.371,158.15 19.311,152.62 28.101,152.62 C 36.881,152.62 44.371,158.8 48.921,172.79 L 47.951,177.68 L 48.411,177.47"
     id="path2632"
     style="fill:#ffffff;fill-opacity:1;fill-rule:nonzero;stroke:none" />
  <path
     d="M 47.851,177.88 C 42.651,163.89 36.131,155.42 28.001,155.42 C 19.861,155.42 16.931,163.89 16.931,166.49 C 16.931,169.09 19.531,175.28 23.121,177.55 L 29.621,165.52 C 34.831,169.42 38.411,172.67 37.761,180.48 C 37.111,188.29 30.921,195.78 26.051,201.95 C 21.161,208.14 15.311,214.33 15.311,226.04 C 15.311,237.75 22.131,249.8 33.861,260.22 C 45.571,270.63 62.501,280.39 77.461,287.23 C 92.431,294.07 115.87,301.88 131.16,309.03 C 146.46,316.19 160.45,323.68 170.87,332.14 C 181.28,323.68 195.27,316.19 210.57,309.03 C 225.87,301.88 249.3,294.07 264.27,287.23 C 279.23,280.39 296.16,270.63 307.87,260.22 C 319.6,249.8 326.42,237.75 326.42,226.04 C 326.42,214.33 320.57,208.14 315.68,201.95 C 310.81,195.78 304.62,188.29 303.97,180.48 C 303.32,172.67 306.9,169.42 312.11,165.52 L 318.62,177.55 C 322.2,175.28 324.8,169.09 324.8,166.49 C 324.8,163.89 321.87,155.42 313.73,155.42 C 305.6,155.42 299.1,163.89 293.88,177.88 L 292.91,172.99 C 297.46,159 304.95,152.82 313.73,152.82 C 322.52,152.82 325.45,158.35 327.41,165.84 C 329.36,173.33 329.36,177.55 331.96,182.12 C 334.57,186.67 342.05,201.32 341.73,204.89 C 341.4,208.47 338.47,213.03 336.2,214.33 C 333.92,215.63 328.71,217.9 328.71,217.9 C 330.98,231.58 326.76,247.53 311.13,261.19 C 295.51,274.85 271.42,287.55 241.81,299.6 C 212.2,311.63 197.88,314.89 170.87,335.72 C 143.85,314.89 129.53,311.63 99.921,299.6 C 70.311,287.55 46.221,274.85 30.601,261.19 C 14.971,247.53 10.751,231.58 13.031,217.9 C 13.031,217.9 7.8106,215.63 5.5306,214.33 C 3.2606,213.03 0.33057,208.47 0.010567,204.89 C -0.31943,201.32 7.1706,186.67 9.7706,182.12 C 12.371,177.55 12.371,173.33 14.321,165.84 C 16.281,158.35 19.211,152.82 28.001,152.82 C 36.781,152.82 44.271,159 48.821,172.99 L 47.851,177.88"
     id="path2634"
     style="fill:#fac528;fill-opacity:1;fill-rule:nonzero;stroke:none" />
  <path
     d="M 325.77,173.33 C 323.17,179.18 319.27,181.45 316.33,182.75 C 313.41,184.07 307.22,181.45 307.22,181.45 C 309.17,188.94 312.43,193.5 315.03,196.09 C 317.65,198.7 324.8,208.14 327.73,214.65 C 333.58,212.37 336.85,210.43 338.15,206.84 C 339.45,203.27 337.17,199.35 335.22,196.43 C 333.26,193.5 328.71,184.39 327.73,181.45 C 326.76,178.53 325.77,173.33 325.77,173.33"
     id="path2636"
     style="fill:#ffffff;fill-opacity:1;fill-rule:nonzero;stroke:none" />
  <path
     d="M 25.531,179.5 L 30.761,169.74 C 33.351,172.67 35.311,174.3 33.681,177.88 C 32.051,181.45 25.531,179.5 25.531,179.5"
     id="path2638"
     style="fill:#ffffff;fill-opacity:1;fill-rule:nonzero;stroke:none" />
  <path
     d="M 15.781,173.33 C 18.381,179.18 22.281,181.45 25.221,182.75 C 28.151,184.07 34.321,181.45 34.321,181.45 C 32.371,188.94 29.121,193.5 26.511,196.09 C 23.921,198.7 16.761,208.14 13.831,214.65 C 7.9706,212.37 4.7206,210.43 3.4106,206.84 C 2.1106,203.27 4.4006,199.35 6.3506,196.43 C 8.3006,193.5 12.851,184.39 13.831,181.45 C 14.811,178.53 15.781,173.33 15.781,173.33"
     id="path2640"
     style="fill:#ffffff;fill-opacity:1;fill-rule:nonzero;stroke:none" />
  <path
     d="M 316.01,179.5 L 310.81,169.74 C 308.21,172.67 306.25,174.3 307.87,177.88 C 309.51,181.45 316.01,179.5 316.01,179.5"
     id="path2642"
     style="fill:#ffffff;fill-opacity:1;fill-rule:nonzero;stroke:none" />
  <path
     d="M 30.761,169.74 C 33.351,172.67 36.661,174.89 33.681,177.88"
     id="path2644"
     style="fill:#ffffff;fill-opacity:1;fill-rule:nonzero;stroke:none" />
  <path
     d="M 301.61,213.57 L 294.2,224.88 L 295.26,225.91 C 295.42,225.66 296.01,224.88 296.01,224.88 C 296.48,224.28 296.67,223.93 297.76,224.98 L 310.14,236.98 C 311.52,238.33 311.19,238.85 310.45,239.98 L 310.17,240.41 L 311.26,241.45 L 318.82,229.88 L 312.73,223.41 L 312.23,224.19 C 316.06,229.14 316.6,230.57 314.2,234.23 C 313.54,235.24 312.95,236.33 311.95,235.38 L 305.67,229.26 C 305.72,229.19 306.33,228.29 306.32,228.29 C 307.33,226.75 309.04,227.4 311.17,229.45 L 311.73,228.6 L 303.98,221.07 L 303.42,221.91 C 305.77,224.39 306.06,225.95 305.01,227.54 C 305.01,227.54 304.73,227.99 304.58,228.23 L 298.86,222.69 C 297.89,221.76 298.34,221.24 298.86,220.41 L 299.14,220.01 C 301.65,216.18 302.88,216.66 307.32,219.95 L 307.82,219.19 L 301.61,213.57 z M 39.171,214.19 L 38.141,215.13 C 38.921,216.17 39.901,217.08 38.891,218.01 L 28.671,227.45 C 27.221,228.78 26.551,230.43 26.421,232.19 C 26.321,233.78 26.931,235.39 28.111,236.95 C 30.871,240.63 34.461,239.97 38.511,236.23 L 44.861,230.38 C 46.811,228.56 48.141,228.41 49.291,229.95 L 50.321,229.01 L 46.291,223.66 L 45.261,224.6 C 46.211,226.17 46.511,227.23 44.421,229.16 L 36.951,236.04 C 34.411,238.39 31.391,238.68 29.671,236.38 C 27.971,234.13 28.171,231.4 31.111,228.69 L 40.511,220.01 C 41.481,219.11 42.381,220.95 42.891,221.48 L 43.921,220.51 L 39.171,214.19 z M 294.17,227.38 C 292.8,227.44 291.54,228.22 290.45,229.45 L 284.86,235.79 L 285.76,236.91 L 286.26,236.32 C 286.82,235.68 287.43,234.88 288.42,236.07 L 298.86,248.63 C 300.07,250.08 299.92,250.46 299.04,251.45 C 298.85,251.67 298.65,251.91 298.45,252.13 L 299.36,253.23 L 304.58,247.32 L 303.67,246.23 C 303.41,246.53 303.11,246.83 302.86,247.13 C 302.1,247.98 301.76,248.12 300.64,246.79 L 296.29,241.6 C 296.81,240.99 297.33,240.49 297.95,239.79 C 299.41,238.16 300.36,236.7 300.36,235.01 C 300.37,233.18 299.91,231.49 298.45,229.73 C 297,228 295.53,227.33 294.17,227.38 z M 293.11,229.69 C 294.08,229.57 295.18,230.13 296.58,231.82 C 299.26,235.02 298.66,236.91 296.79,239.01 C 296.29,239.58 295.39,240.51 295.39,240.51 L 290.04,234.1 C 288.99,232.85 289.93,232.15 290.42,231.6 C 291.28,230.63 292.13,229.82 293.11,229.69 z M 54.821,233.91 C 53.281,233.97 51.551,234.8 49.861,236.63 C 47.101,239.59 47.521,241.94 48.141,243.32 C 48.871,244.93 50.111,247.35 50.111,247.35 C 51.041,249.19 50.441,250.66 48.981,252.23 C 47.511,253.81 45.171,254.48 43.361,252.79 C 40.871,250.48 42.151,246.53 44.701,243.1 L 43.921,242.51 L 37.821,249.26 L 38.421,249.82 L 40.671,248.88 C 40.431,251.26 41.281,252.83 42.421,253.88 C 44.811,256.11 48.261,255.54 51.111,252.48 C 53.861,249.53 53.901,246.89 53.291,245.6 C 52.391,243.75 51.231,241.32 51.231,241.32 C 50.381,239.57 50.821,238.07 52.011,236.79 C 53.421,235.27 55.441,234.73 57.041,236.23 C 59.121,238.16 57.911,241.84 55.821,244.95 L 56.511,245.6 L 62.111,239.23 L 61.511,238.69 L 59.451,239.57 C 59.721,237.25 58.821,235.89 58.011,235.13 C 57.121,234.3 56.031,233.87 54.821,233.91 z M 280.92,237.79 C 279.78,237.85 278.71,238.23 277.79,238.95 C 273.97,241.93 275.88,248.94 279.32,253.35 C 283.11,258.2 289.19,260.95 292.82,258.13 C 296.5,255.25 294.96,248.36 291.36,243.76 C 288.47,240.06 284.34,237.59 280.92,237.79 z M 280.67,239.32 C 283.62,239.16 286.91,242.73 289.08,245.51 C 291.82,249.04 295.16,254.43 291.95,256.95 C 288.76,259.45 284.61,255.48 281.54,251.54 C 278.46,247.62 275.56,242.55 278.7,240.1 C 279.33,239.61 279.99,239.36 280.67,239.32 z M 36.541,241.29 C 36.011,241.29 35.391,241.6 34.921,242.04 C 34.141,242.81 33.991,243.93 34.511,244.45 C 35.021,244.97 36.181,244.73 36.921,244.01 C 37.711,243.24 37.891,242.14 37.391,241.63 C 37.171,241.41 36.871,241.29 36.541,241.29 z M 269.89,246.95 C 268.89,246.96 267.94,247.26 267.17,247.73 L 260.11,251.85 L 260.89,253.1 C 261.12,252.97 261.41,252.86 261.67,252.69 C 262.72,252.05 262.97,252.18 263.76,253.48 L 272.58,268.1 C 273.7,269.95 272.33,270.08 271.32,270.88 L 272.08,272.13 L 278.36,268.29 L 277.64,267.1 C 277.33,267.21 276.98,267.41 276.98,267.41 C 276.31,267.83 275.55,268.29 274.86,267.16 L 270.42,259.79 C 270.97,259.44 271.52,259.09 272.11,258.85 C 273.52,258.3 275.01,258.63 276.86,261.23 C 277.51,262.13 278.64,263.79 278.64,263.79 C 280.04,265.74 281.68,266.88 283.11,266.01 C 285.01,264.87 283.94,262.13 282.54,259.76 L 281.76,260.23 C 282.16,260.91 283.36,263.04 282.67,263.45 C 282.27,263.69 281.8,263.49 280.45,261.91 C 280.45,261.91 279.22,260.45 278.45,259.6 C 275.86,256.73 274.28,257.28 273.29,257.6 C 273.32,257.59 273.23,257.54 273.23,257.54 C 275.27,256.16 276.84,253.49 274.67,249.91 C 273.34,247.72 271.55,246.92 269.89,246.95 z M 77.821,247.32 L 63.821,262.35 C 62.921,263.33 61.751,264.38 60.481,263.63 L 59.761,264.95 L 64.761,267.88 L 65.451,266.57 C 64.001,265.72 63.431,264.63 65.361,262.51 L 67.321,260.38 L 72.421,263.38 L 71.321,267.98 C 70.911,269.77 70.291,269.31 68.641,268.45 L 67.921,269.76 L 73.731,273.19 L 74.451,271.88 C 73.801,271.45 73.111,271.18 73.421,269.79 L 78.581,247.76 L 77.821,247.32 z M 269.26,248.76 C 270.37,248.84 271.49,249.85 272.45,251.45 C 274.51,254.85 273.47,256.24 270.95,257.76 C 270.51,258.04 270.06,258.28 269.61,258.48 L 265.76,252.1 C 265.41,251.53 265.01,250.85 265.67,250.45 C 265.75,250.39 266.11,250.1 266.11,250.1 L 268.17,248.98 C 268.53,248.79 268.89,248.73 269.26,248.76 z M 75.201,251.79 L 72.861,261.69 L 68.451,259.1 L 75.201,251.79 z M 85.321,252.13 L 84.671,253.51 L 85.111,253.73 C 86.411,254.41 86.781,254.7 86.201,255.95 L 78.511,272.07 C 77.871,273.42 77.071,273.13 76.171,272.66 L 75.671,272.38 L 75.011,273.73 L 81.421,277.04 L 82.081,275.69 L 81.611,275.45 C 80.661,274.95 79.901,274.47 80.481,273.38 L 80.701,272.98 L 88.321,257.01 C 88.961,255.67 89.701,256.09 90.421,256.48 C 90.671,256.6 90.921,256.72 91.111,256.82 L 91.731,255.48 L 85.321,252.13 z M 259.54,252.23 L 253.86,254.98 L 254.48,256.29 C 256.1,255.73 257.11,255.69 258.42,258.41 L 263.08,268.04 C 264.66,271.34 264.31,274.56 261.86,275.73 C 259.47,276.89 257.04,275.96 255.2,272.16 L 249.32,260.01 C 248.71,258.75 250.58,258.34 251.17,257.95 L 250.51,256.57 L 243.79,259.82 L 244.42,261.13 C 245.52,260.59 246.54,259.82 247.17,261.13 L 253.58,274.35 C 254.47,276.23 255.82,277.38 257.42,277.98 C 258.81,278.52 260.39,278.34 262.04,277.54 C 265.95,275.66 266.12,271.71 263.61,266.48 L 259.61,258.26 C 258.39,255.72 258.53,254.33 260.17,253.54 L 259.54,252.23 z M 92.821,256.04 L 92.231,257.41 C 92.461,257.53 92.721,257.71 92.981,257.85 C 94.071,258.36 94.331,258.62 93.701,260.04 L 86.641,276.04 C 85.741,278.08 84.881,276.96 83.701,276.57 L 83.111,277.95 L 89.581,281.1 L 90.171,279.76 C 89.911,279.55 89.581,279.38 89.581,279.38 C 88.861,279.04 88.071,278.7 88.611,277.45 L 92.171,269.38 C 92.751,269.65 93.351,269.91 93.861,270.26 C 95.071,271.13 95.581,272.62 94.481,275.69 C 94.111,276.76 93.391,278.7 93.391,278.69 C 92.551,281 92.531,283.04 94.011,283.76 C 95.941,284.69 97.591,282.23 98.761,279.66 L 97.951,279.26 C 97.621,279.98 96.571,282.25 95.861,281.91 C 95.441,281.7 95.341,281.19 95.891,279.13 C 95.891,279.13 96.421,277.25 96.701,276.1 C 97.621,272.23 96.301,271.19 95.511,270.54 C 95.521,270.55 95.511,270.48 95.511,270.48 C 97.741,271.41 100.76,271.18 102.48,267.26 C 104.2,263.4 102.3,260.65 100.17,259.63 L 92.821,256.04 z M 51.641,256.23 C 51.021,256.22 50.351,256.64 49.921,257.29 C 49.291,258.21 49.381,259.34 50.011,259.76 C 50.611,260.16 51.671,259.71 52.261,258.85 C 52.871,257.94 52.821,256.79 52.231,256.38 C 52.061,256.27 51.841,256.23 51.641,256.23 z M 96.761,259.85 C 96.901,259.82 97.061,259.83 97.231,259.91 C 97.321,259.94 97.701,260.07 97.701,260.07 L 99.731,261.19 C 101.14,261.98 101.11,263.93 100.08,266.26 C 98.421,270 96.711,269.93 94.111,268.66 C 93.661,268.45 93.231,268.21 92.821,267.95 L 95.891,260.98 C 96.101,260.5 96.361,259.95 96.761,259.85 z M 242.2,260.35 L 229.61,265.48 L 230.17,266.82 C 230.43,266.71 231.39,266.38 231.39,266.38 C 232.12,266.15 232.5,265.99 233.08,267.35 L 239.58,282.79 C 240.31,284.53 239.72,284.76 238.45,285.26 L 237.95,285.45 L 238.51,286.76 L 251.54,281.73 L 248.64,273.69 L 247.76,274.04 C 249.16,279.77 249.04,281.16 244.92,282.76 C 243.77,283.2 242.67,283.72 242.14,282.48 L 238.82,274.63 C 238.91,274.6 239.95,274.2 239.95,274.19 C 241.68,273.53 243.06,274.9 244.2,277.54 L 245.17,277.16 L 241.08,267.48 L 240.14,267.85 C 241.27,270.94 240.81,272.28 239.01,272.98 C 239.01,272.98 238.53,273.18 238.26,273.29 L 235.2,266.07 C 234.7,264.87 235.39,264.69 236.29,264.32 L 236.76,264.13 C 241.02,262.39 242,263.36 244.82,268.13 L 245.67,267.79 L 242.2,260.35 z M 112.64,265.19 L 112.32,266.63 L 112.82,266.88 C 113.76,267.35 114.6,267.43 114.2,269.16 L 110.23,286.1 C 109.88,287.57 109.16,287.34 108.11,286.88 L 107.58,286.63 L 107.23,288.07 L 114.36,291.23 L 114.67,289.79 C 114.67,289.79 113.98,289.45 113.89,289.41 C 112.88,288.98 112.13,288.56 112.39,287.45 L 114.39,278.95 C 116.32,279.69 117.76,280.44 116.79,285.13 L 117.73,285.54 L 120.17,275.1 L 119.26,274.69 C 118.18,278.2 117.23,278.73 114.73,277.48 L 116.54,269.79 C 116.81,268.66 117.16,268.75 118.51,269.35 C 122.19,270.98 123.23,272.04 122.42,278.48 L 123.29,278.85 L 124.92,270.6 L 112.64,265.19 z M 223.48,267.85 L 218.67,269.85 L 219.01,271.23 C 220.41,270.89 221.16,271.18 221.82,273.98 L 225.01,285.57 L 214.2,271.85 L 210.73,273.6 L 211.04,275.04 L 211.36,274.88 C 212.04,274.54 213.07,274.19 213.32,275.38 L 216.48,289.79 C 217.18,293.06 216.86,294.15 215.42,295.1 L 215.73,296.51 L 220.54,294.1 L 220.23,292.69 C 218.9,293.19 218.11,292.97 217.51,290.23 L 214.42,276.1 L 226.7,291.63 L 227.36,291.29 L 222.79,273.98 C 222.03,270.81 222.55,269.95 223.82,269.26 L 223.48,267.85 z M 132.01,273.38 C 128.22,273.18 125.07,277.9 124.11,282.73 C 122.89,288.79 124.62,295.88 128.92,297.76 C 133.28,299.66 137.36,294.61 138.51,288.88 C 139.73,282.73 138,275.66 133.67,273.79 C 133.11,273.54 132.55,273.41 132.01,273.38 z M 209.36,274.26 L 203.82,277.26 L 204.01,278.76 L 204.39,278.54 C 205.5,277.94 205.88,277.84 206.08,279.19 L 208.54,296.66 C 208.74,298.12 208.1,298.56 207.32,298.98 L 206.89,299.23 L 207.11,300.69 L 212.61,297.69 L 212.39,296.19 L 212.01,296.45 C 211.19,296.88 210.49,297.18 210.36,295.95 L 210.32,295.48 L 207.89,278.16 C 207.67,276.69 208.36,276.38 208.98,276.04 C 209.19,275.92 209.4,275.82 209.58,275.73 L 209.36,274.26 z M 132.08,274.91 C 132.49,274.91 132.92,274.99 133.39,275.19 C 137.36,276.94 136.69,283.38 135.82,287.66 C 134.95,292.07 133.05,298 129.23,296.35 C 125.46,294.71 125.79,288.79 126.76,283.88 C 127.63,279.57 129.2,274.93 132.08,274.91 z M 140.79,278.54 L 140.61,279.98 C 140.86,280.12 141.16,280.32 141.45,280.48 C 142.6,281.12 142.93,281.43 142.76,282.95 L 140.67,299.95 C 140.41,302.1 139.29,300.82 138.08,300.32 L 137.89,301.79 L 144.82,305.63 L 145.01,304.23 C 144.7,303.99 144.36,303.79 144.36,303.79 C 143.59,303.36 142.74,302.93 142.89,301.6 L 143.95,293.04 C 144.56,293.38 145.19,293.69 145.76,294.1 C 147.15,295.15 148.04,296.78 147.89,300.07 C 147.84,301.2 147.7,303.26 147.7,303.26 C 147.57,305.74 148.12,307.98 149.7,308.85 C 151.78,310 152.62,307.44 152.98,304.69 L 152.11,304.19 C 152.01,304.97 151.65,307.38 150.89,306.95 C 150.45,306.69 150.25,306.11 150.17,303.91 C 150.17,303.91 150.15,301.91 150.08,300.66 C 149.83,296.5 148.3,295.29 147.39,294.54 C 147.4,294.54 147.39,294.45 147.39,294.45 C 149.72,295.6 152.47,295.53 152.98,291.38 C 153.48,287.29 150.94,284.18 148.67,282.91 L 140.79,278.54 z M 195.79,281.54 L 195.01,281.95 L 194.36,284.45 C 192.86,283.28 191.25,283.72 190.17,284.29 C 187.5,285.72 185.67,289.03 186.08,293.41 C 186.43,297.41 188.41,297.83 189.79,297.69 C 191.43,297.52 194.01,297.1 194.01,297.1 C 195.92,296.83 196.59,298.03 196.79,300.13 C 196.97,302.28 196.01,304.95 193.61,306.23 C 190.33,307.96 188.27,305.14 187.42,301.19 L 186.51,301.79 L 187.48,310.73 L 188.26,310.29 L 189.01,307.57 C 190.6,308.72 192.29,308.41 193.79,307.63 C 196.94,305.94 198.75,302.1 198.36,297.98 C 197.98,294.02 196.09,292.97 194.76,293.13 C 192.84,293.38 190.36,293.69 190.36,293.69 C 188.53,293.93 187.7,292.92 187.54,291.19 C 187.35,289.14 188.25,286.82 190.36,285.69 C 193.12,284.23 194.99,286.89 195.92,290.23 L 196.82,289.76 L 195.79,281.54 z M 145.54,282.95 C 145.66,282.92 145.8,282.94 145.98,283.04 C 146.07,283.09 146.48,283.23 146.48,283.23 L 148.67,284.6 C 150.21,285.57 150.73,287.68 150.42,290.16 C 149.93,294.11 148.36,293.93 145.58,292.38 C 145.08,292.11 144.61,291.84 144.14,291.51 L 145.04,284.1 C 145.1,283.59 145.2,283.03 145.54,282.95 z M 183.58,288.79 L 170.98,298.01 L 171.01,299.54 C 171.28,299.34 172.2,298.73 172.2,298.73 C 172.91,298.28 173.31,297.98 173.32,299.54 L 173.61,315.54 C 173.69,317.6 173.11,317.96 171.89,318.69 L 171.42,318.98 L 171.48,320.54 L 184.01,313.01 L 184.51,303.88 L 183.67,304.38 C 182.96,311.15 182.09,312.56 178.11,314.95 C 177.01,315.6 175.91,316.37 175.86,314.91 L 175.79,307.35 C 175.87,307.29 176.92,306.54 176.92,306.54 C 178.63,305.29 179.35,306.7 179.42,309.76 L 180.39,309.07 L 180.14,297.85 L 179.2,298.51 C 179.13,302.13 178.29,303.94 176.51,305.23 C 176.51,305.23 176.04,305.59 175.76,305.79 L 175.61,297.54 C 175.58,296.13 176.26,295.74 177.14,295.07 L 177.61,294.73 C 181.88,291.61 182.36,292.64 183.17,297.98 L 184.04,297.35 L 183.58,288.79 z M 159.82,291.04 C 158.92,291.14 158.1,291.64 157.32,292.41 C 155.97,293.76 155.22,296.37 155.11,299.79 C 154.91,306.44 157.77,313.82 162.14,316.85 C 165.61,319.28 168.02,317.87 168.73,312.63 L 167.7,311.66 C 167.18,315.42 165.58,317.75 162.51,315.6 C 159.23,313.31 157.74,308.72 157.95,301.91 C 158.07,298.08 158.42,296.35 158.98,294.88 C 159.84,292.73 161.28,292.43 162.89,293.54 C 165.73,295.53 167,299.94 167.61,305.35 L 168.58,305.98 L 168.58,296.23 L 167.76,295.66 L 166.82,297.1 C 166.08,295.38 164.72,293.34 162.89,292.04 C 161.72,291.23 160.73,290.94 159.82,291.04 z"
     id="path2646"
     style="fill:#1e4ca1;fill-opacity:1;fill-rule:nonzero;stroke:none" />
  <path
     d="M 175,144.73 C 174.5,139.62 179.67,136.13 182.68,132.27 C 184.33,129.37 184.27,125.38 184.32,122.3 C 183.37,123.49 181.87,124.69 180.36,125.35 C 180.96,122.73 182.4,119.92 183.06,116.98 C 183.15,115.29 183.43,112.44 182.46,110.94 L 179.95,113.42 C 178.83,114.83 178.78,117.59 176.81,118.12 C 175.08,115.19 179.13,112.52 180.35,109.72 C 181.76,106.37 183.81,101.38 180.71,98.27 C 179.95,100.44 178.07,101.82 176.43,103.4 C 174.88,98.55 181.62,95.85 182.15,91.23 C 182.61,89.3 182.58,86.54 181.17,85.2 C 180,87.02 179.32,89.42 177.13,90.34 C 176.66,90.13 176.72,89.67 176.7,89.2 C 178.86,84.98 182.62,80.78 180.05,75.5 C 179.15,75.92 178.97,77.3 178.31,78.1 C 177.5,79.12 176.38,80.24 175.31,80.04 C 178.57,76.85 179.1,72.39 178.56,67.97 C 176.37,64.74 177.43,70.69 174.97,70.54 C 174.21,68.58 175.97,66.68 175.28,64.24 C 174.66,61.73 172.08,60.44 170.26,59.05 C 169.15,62.08 164.72,62.84 165.23,66.44 C 164.75,68.07 166.26,69.32 165.53,70.65 L 163.4,66.65 L 162.86,66.68 C 161.01,68.65 161.35,71.63 161.43,74.09 C 160.88,77.79 165.87,80 164.36,83.04 L 163.17,82.02 C 161.91,80.75 161.82,78.45 160.26,77.82 C 158.47,81.57 159.42,86.59 161.47,90.13 C 162.05,91.49 163.48,92.97 162.7,94.53 C 162.32,94.47 162.06,94.02 161.75,93.79 C 160.25,92.47 160.17,90.24 159.05,88.9 C 157.45,91.49 157.66,95.33 158.61,98.13 C 159.88,101.62 163.98,104.69 162.5,108.5 C 160.97,106.64 160.96,103.73 158.61,102.58 C 156.83,106.55 156.97,110.54 158.28,114.94 C 159.71,118.35 163.42,121.52 162.18,125.47 C 159.46,124.34 159.63,120.88 158.03,118.79 C 156.2,121.23 156.63,124.98 156.75,128.04 C 157.28,134.47 167.07,138.03 165.25,144.84 C 165.25,144.84 167.62,147.6 175,144.73"
     id="path2688"
     style="fill:#cc0c3d;fill-opacity:1;fill-rule:nonzero;stroke:none" />
  <path
     d="M 175,144.73 C 174.5,139.6 179.68,136.13 182.68,132.27 C 184.33,129.35 184.27,125.38 184.32,122.3 C 183.37,123.5 181.87,124.7 180.37,125.35 C 180.96,122.73 182.4,119.92 183.06,116.98 C 183.15,115.29 183.43,112.44 182.46,110.93 L 179.95,113.4 C 178.83,114.83 178.77,117.59 176.81,118.12 C 175.08,115.19 179.13,112.52 180.33,109.72 C 181.76,106.35 183.81,101.37 180.7,98.27 C 179.95,100.45 178.07,101.82 176.43,103.4 C 174.88,98.55 181.62,95.85 182.15,91.23 C 182.62,89.29 182.58,86.53 181.16,85.22 C 180.01,87.02 179.32,89.42 177.13,90.34 C 176.65,90.12 176.73,89.65 176.7,89.2 C 178.86,84.98 182.62,80.78 180.06,75.52 C 179.15,75.92 178.96,77.3 178.31,78.09 C 177.5,79.13 176.38,80.23 175.31,80.04 C 178.57,76.85 179.1,72.39 178.56,67.97 C 176.37,64.75 177.43,70.69 174.96,70.54 C 174.21,68.58 175.97,66.67 175.27,64.25 C 174.65,61.73 172.08,60.43 170.26,59.04 C 169.13,62.08 164.71,62.84 165.22,66.45 C 164.75,68.07 166.26,69.33 165.52,70.65 L 163.4,66.65 L 162.85,66.67 C 161.01,68.65 161.33,71.64 161.43,74.09 C 160.88,77.79 165.87,79.99 164.35,83.04 L 163.18,82.02 C 161.9,80.74 161.82,78.45 160.26,77.8 C 158.47,81.55 159.43,86.59 161.46,90.12 C 162.06,91.48 163.5,92.97 162.7,94.53 C 162.32,94.47 162.07,94.02 161.75,93.79 C 160.25,92.47 160.17,90.24 159.06,88.9 C 157.45,91.49 157.67,95.33 158.61,98.14 C 159.88,101.63 163.97,104.68 162.51,108.5 C 160.97,106.64 160.95,103.72 158.61,102.58 C 156.83,106.55 156.98,110.54 158.3,114.94 C 159.71,118.34 163.41,121.52 162.18,125.47 C 159.46,124.34 159.63,120.89 158.02,118.79 C 156.2,121.23 156.63,124.97 156.75,128.04 C 157.3,134.47 167.07,138.03 165.25,144.84 C 165.25,144.84 167.62,147.6 175,144.73 z"
     id="path2690"
     style="fill:none;stroke:#000000;stroke-width:0.45985;stroke-linecap:butt;stroke-linejoin:miter;stroke-miterlimit:4;stroke-opacity:1" />
  <path
     d="M 170.26,59.05 C 170.8,59.22 171.83,61.23 172.26,63.43 L 173.17,67.62 L 174.07,144.77 C 171.5,145.94 168.82,146.03 166.17,145.04 L 167.48,67.28 C 167.32,66.14 168.63,58.54 170.26,59.05"
     id="path2692"
     style="fill:#b3b3b3;fill-opacity:1;fill-rule:nonzero;stroke:none" />
  <path
     d="M 126.08,79.03 C 124.43,95.04 132.91,109.17 139.23,122.99 L 140.88,121.78 C 141.47,129.73 146.47,136.54 149.56,143.79 C 152.16,150.23 158.91,156.43 152.48,163.42 C 150.17,165.48 147.81,167.87 147.53,170.94 C 147.43,172.4 148.55,173.83 149.51,175.09 C 154.57,177.14 160.86,181.14 161.91,187.02 C 164.13,195.68 160.81,203.78 155.6,210.4 C 152.07,212.37 149.06,216.32 144.45,213.95 C 141.82,213.5 141.16,207.93 138.12,210.87 C 136.52,211.23 135.25,209.75 133.98,208.79 C 133.61,204.52 128.65,205.38 127.43,201.43 C 125.6,199.42 128.86,194.09 124.28,194.94 C 122.5,193.85 121.42,192.2 121.51,190.05 L 121.73,189.89 C 121.23,188.99 120.9,190.3 120.27,189.94 C 118.21,190.02 116.97,189.75 115.61,188.04 C 114.65,186.92 114.21,185.55 114.31,183.87 C 112.22,183.63 110.25,182.02 109.03,180.22 C 108.3,178.63 108.6,176.55 109.23,175.07 C 107.35,173.68 105.22,172.3 104.46,170.02 C 104,167.74 103.9,165.05 105.68,163.38 L 105.66,162.84 C 102.5,160.19 99.531,156.62 100.13,152.14 C 100.31,150.6 101.03,149.27 101.45,147.88 C 98.031,144.39 95.931,139.33 97.671,134.35 C 98.131,132.42 99.851,130.9 100.93,129.09 C 100.17,124.98 99.851,120.15 103.51,117.27 C 102.13,110.79 103.51,104.45 108.6,100.67 C 108.88,100.43 109.28,100.57 109.51,100.25 C 110.35,95.78 112.55,90.72 117.22,88.78 C 118.26,85.37 120.67,80.07 125.17,79.05 L 126.08,79.03"
     id="path2694"
     style="fill:#cc660f;fill-opacity:1;fill-rule:nonzero;stroke:none" />
  <path
     d="M 138.36,124.32 C 134.17,129.38 134.51,137.03 137.55,142.53 C 137.71,142.75 138.02,142.89 137.96,143.28 L 135.5,143.37 C 128.08,126.75 120.35,109.77 118.23,91.12 C 118.63,87.34 119.91,82.08 124.45,80.39 L 124.98,80.22 C 123.87,96.52 132.48,110.25 138.36,124.32"
     id="path2696"
     style="fill:#fac528;fill-opacity:1;fill-rule:nonzero;stroke:none" />
  <path
     d="M 222.02,84.29 C 223.16,85.87 222.08,88.37 224.56,88.67 C 227.63,88.78 229.78,91.15 231.18,93.72 C 232.43,96.59 233.07,99.55 232.57,102.73 C 233.97,103.13 235.96,102.98 237.1,104.55 C 240.23,108.74 238.08,113.19 237.4,117.67 C 239.1,117.84 240.83,119.08 241.73,120.65 C 245.11,124.99 237.76,130 243.63,133.24 C 245.53,137.24 245.45,143.23 242.43,146.94 C 245.02,148.78 244.85,152.45 244.4,154.93 C 243.53,158.73 240.33,161.59 237.36,164.08 C 239.6,166.69 239.72,170.05 238.45,173.24 C 236.98,175.14 235.11,176.28 233.22,177.27 C 233.77,179.63 233.71,182.32 231.62,183.93 C 230.35,184.97 228.66,185.18 227.07,185.39 C 227.15,187.93 225.67,189.2 223.72,190.65 C 222.06,191.32 220.75,191.14 219.11,190.52 C 218.65,192.52 219.28,195.1 216.78,196.27 C 216.18,196.59 215.33,196.48 214.57,196.49 C 214.3,199.65 214.72,202.78 211.56,204.58 C 210.57,204.93 209.33,204.74 208.27,204.85 C 207.36,207.49 204.87,210.73 201.81,210.99 C 198.77,209.57 198.32,214.34 195.33,214.37 C 190.02,216 186.22,212.54 182.43,209.6 C 179.25,202.28 176.53,192.78 179.31,184.55 C 182.63,180.83 186.43,177.63 190.66,175.63 C 193.12,173.78 194.01,170.53 193.13,167.64 C 190.7,163.67 185.3,160.72 185.88,155.55 C 186.76,147.84 193.52,141.85 196.73,134.75 C 198.72,130.47 202.03,126.52 201.8,121.68 L 203.12,122.33 C 208.12,109.65 215.03,97.12 213.83,82.59 C 213.87,81.44 211.97,79.89 213.17,78.94 C 217.05,78.18 220.08,81.45 222.02,84.29"
     id="path2698"
     style="fill:#cc660f;fill-opacity:1;fill-rule:nonzero;stroke:none" />
  <path
     d="M 221.11,84.72 C 224.46,92.42 221.01,101.14 218.82,108.58 C 217.61,109 219.01,109.88 218.36,110.59 C 213.91,121.72 209.47,132.77 204.02,143.48 L 203.47,143.18 C 206.12,138.03 207.87,128.84 203.7,123.23 C 208.93,111.32 214.2,99.38 215.25,85.84 C 215.11,83.93 214.65,81.72 213.96,79.83 C 216.96,79.73 219.87,81.99 221.11,84.72"
     id="path2700"
     style="fill:#fac528;fill-opacity:1;fill-rule:nonzero;stroke:none" />
  <path
     d="M 117.03,89.87 C 118.72,109.37 127.17,126.94 134.46,144.09 C 131.36,145.52 133.9,149.95 131,150.35 C 123.3,134.6 110.85,120.84 110.48,102.07 C 110.71,97.3 112.36,92.18 117.03,89.87"
     id="path2702"
     style="fill:#fac528;fill-opacity:1;fill-rule:nonzero;stroke:none" />
  <path
     d="M 229.7,93.08 C 234.71,100.27 229.47,108.2 227.17,114.88 C 221.83,126.65 215.72,138.15 209.37,149.58 C 206.96,150.73 208.77,147.6 207.43,146.73 L 205.35,144.04 C 213.15,126.19 222.75,108.83 223.81,89.38 C 226.06,89.83 228.38,90.9 229.7,93.08"
     id="path2704"
     style="fill:#fac528;fill-opacity:1;fill-rule:nonzero;stroke:none" />
  <path
     d="M 129.55,150.57 C 129.18,151.27 128.21,152.07 127.56,152.85 C 118.23,143.07 110.03,132.62 105.46,120.27 C 103.36,115.28 103.66,108.44 106.48,103.89 L 109.17,101.57 C 109.68,120.35 121.7,134.73 129.55,150.57"
     id="path2706"
     style="fill:#fac528;fill-opacity:1;fill-rule:nonzero;stroke:none" />
  <path
     d="M 237.58,107.68 C 237.97,120.79 229.68,131.52 222.77,142.28 C 220.46,146.27 216.82,149.69 214.12,153.47 L 210.31,150.08 C 218.55,135.29 226.83,120.42 232.33,104.58 C 234.2,102.82 237.27,105.32 237.58,107.68"
     id="path2708"
     style="fill:#fac528;fill-opacity:1;fill-rule:nonzero;stroke:none" />
  <path
     d="M 103.71,118.72 C 107.72,132.17 117.16,143.1 126.67,153.97 C 126.57,155.43 126.17,157.13 126.68,158.57 C 124.71,159.33 123.23,156.39 121.43,155.6 C 112.63,147.7 103.88,138.74 101.5,127.47 C 101.16,124.55 101.17,120.65 103.71,118.72"
     id="path2710"
     style="fill:#fac528;fill-opacity:1;fill-rule:nonzero;stroke:none" />
  <path
     d="M 241.23,121.9 C 242.13,127.78 239.01,132.95 236.42,137.95 C 231.51,146.4 223.9,154.28 216.6,160.9 C 213.65,159.63 216,156.63 214.91,154.14 C 224.03,143.15 232.06,131.59 237.21,118.74 C 239.06,118.9 240.63,120.23 241.23,121.9"
     id="path2712"
     style="fill:#fac528;fill-opacity:1;fill-rule:nonzero;stroke:none" />
  <path
     d="M 153.36,153.55 C 157.21,160.48 147.81,163.8 146.8,169.83 C 145.72,178.53 156.33,176.7 159.01,183.05 C 163.41,190.33 161.76,200.14 157.32,206.82 C 154.37,210.37 150.75,214.18 145.73,213.37 C 142.4,212.18 140.51,208.72 139.55,205.6 C 138.1,199.35 140.71,192.83 144.43,187.63 C 144.27,187.1 143.57,187.12 143.36,187.67 C 138.43,193.68 136.67,202.25 139.91,209.27 C 138.57,210.63 136.85,209.45 135.45,209.13 C 130.57,203.32 132.76,196.02 135.71,190.09 C 138.52,189.6 141.5,188.8 143.17,186.52 C 141.75,185.27 141.15,187.74 139.83,187.79 C 137.81,189.02 135.12,188.88 132.87,188.19 C 129.83,186.84 128.96,183.8 128.77,180.82 C 129.98,180.24 131.7,180.87 132.98,180.44 C 135.28,180.59 138.1,179.95 140.46,179.25 C 141.03,180.23 142.07,181.58 143.3,181.53 L 143.67,181.22 C 139.71,177.52 137.57,173.45 137.67,167.77 C 138.27,160.84 148.72,154.64 142.35,148.12 C 138.16,142.52 134.78,135.88 137.21,128.73 L 140.02,123.64 C 142.86,134.37 148.63,143.75 153.36,153.55"
     id="path2714"
     style="fill:#fac528;fill-opacity:1;fill-rule:nonzero;stroke:none" />
  <path
     d="M 197.41,153.68 C 196.05,158.72 201.51,161.13 203.17,165.07 C 205.32,169.35 204.53,175.22 201.21,178.94 C 200.4,179.89 199.36,180.78 198.78,181.79 C 200.33,182.28 201.1,179.94 202.37,179.29 C 205.8,180.78 210.86,180.67 214.11,179.24 C 214,182.48 212.33,185.53 209.65,187.47 C 205.57,189.45 201.5,187.07 198.37,185.34 L 198,185.88 C 200.22,187.95 202.87,189.09 205.87,189.29 C 208.91,194.78 209.05,202.98 205.23,208.1 C 203.9,208.99 202.56,210.43 200.68,209.72 C 203.33,201.89 202.1,193.18 196.58,186.85 C 196.36,186.87 196.12,186.79 195.97,187.03 C 196.62,188.23 197.28,189.35 197.93,190.49 C 201.38,196.67 202.02,203.84 199.02,210.32 C 197.56,212.22 195.85,213.67 193.47,213.67 C 189.4,213.58 185.42,211.64 182.61,208.14 C 180.06,201.25 177.77,192.89 179.95,185.22 C 181.2,183.34 183.32,182.72 184.17,180.7 C 188.3,178.17 195.32,175.17 194.66,169.28 C 193.16,163.8 185.13,160.25 186.9,153.9 C 191.16,144.24 198.3,135.62 202.32,125.89 L 202.63,123.88 C 209.45,134.15 200.52,144.29 197.41,153.68"
     id="path2716"
     style="fill:#fac528;fill-opacity:1;fill-rule:nonzero;stroke:none" />
  <path
     d="M 124.87,159.55 C 124.52,160.49 123.71,161.37 123.13,162.23 C 114.06,157.48 103.27,151.8 98.621,141.92 C 96.961,137.9 98.571,133.7 100.98,130.55 C 104.85,142 114.77,151.4 124.87,159.55"
     id="path2718"
     style="fill:#fac528;fill-opacity:1;fill-rule:nonzero;stroke:none" />
  <path
     d="M 243.78,141.92 C 239.5,153.03 227.73,158.74 218.57,164.52 C 218.23,163.53 217.67,162.7 217.56,161.64 C 226.46,153.04 236.23,143.18 240.81,131.74 C 243.97,134.15 244.41,137.98 243.78,141.92"
     id="path2720"
     style="fill:#fac528;fill-opacity:1;fill-rule:nonzero;stroke:none" />
  <path
     d="M 159.17,140.54 C 162.7,145.03 168.55,146.78 174.03,145.1 C 178.77,143.92 181.97,139.25 183.77,134.97 C 184.38,134.48 185.21,133.44 186.02,134.34 C 186.61,139.8 183.43,144.28 177.47,147.02 C 175.92,147.3 174.48,148.68 173.98,150.18 L 174.22,172.33 L 165.37,172.09 C 165.91,165.03 165.57,157.68 166.1,150.63 C 164.37,146.23 159.05,147.77 156.25,141.98 C 154.98,139.67 153.11,137.3 153.7,134.39 C 154.23,133.74 154.77,133.8 155.42,134.1 L 159.17,140.54"
     id="path2722"
     style="fill:#fac528;fill-opacity:1;fill-rule:nonzero;stroke:none" />
  <path
     d="M 138.55,144.57 C 140.73,148.02 144.71,151.79 142.25,156.18 C 141.06,157.37 141.13,159.44 139.62,159.95 C 136.41,156.08 132.12,151.7 134.15,146.33 C 134.95,144.69 137.01,144.47 138.55,144.57"
     id="path2724"
     style="fill:#fac528;fill-opacity:1;fill-rule:nonzero;stroke:none" />
  <path
     d="M 206.81,148.37 C 207.75,153.39 204.75,157.57 202.12,161.27 C 200.38,160.03 199.25,158.22 198.42,156.4 C 198.65,151.88 200.81,148.12 202.97,144.28 C 205.13,144.58 206.12,146.54 206.81,148.37"
     id="path2726"
     style="fill:#fac528;fill-opacity:1;fill-rule:nonzero;stroke:none" />
  <path
     d="M 122.63,163.32 C 122.85,165.07 122.73,168.37 124.71,170.07 C 116.42,167.84 105.9,165.14 101.36,156 C 100.37,154.29 101.26,151.19 102.26,149.15 C 108.46,155.45 115.45,159.58 122.63,163.32"
     id="path2728"
     style="fill:#fac528;fill-opacity:1;fill-rule:nonzero;stroke:none" />
  <path
     d="M 134.06,154.62 L 139.28,161.27 C 138.2,162.99 137.18,164.64 136.95,166.72 C 133.28,165 128.1,161.52 127.55,156.93 C 127.41,155.32 128.13,154.07 128.86,152.82 C 130.06,152.08 131.63,151.03 132.87,151.37 L 134.06,154.62"
     id="path2730"
     style="fill:#fac528;fill-opacity:1;fill-rule:nonzero;stroke:none" />
  <path
     d="M 242.77,156.83 C 237.26,165.69 227.31,168.58 218.12,171.2 C 216.15,169.52 218.91,167.5 218.46,165.67 C 227.13,161.14 235.92,155.92 241.92,147.89 C 245,150.15 243.58,153.8 242.77,156.83"
     id="path2732"
     style="fill:#fac528;fill-opacity:1;fill-rule:nonzero;stroke:none" />
  <path
     d="M 212.26,153 C 214.01,154.78 214.5,157.68 213.81,160.08 C 212.01,163.44 208.58,165.95 205.08,166.84 L 202.68,162.17 C 205.32,158.69 207.9,155.23 208.2,150.92 C 209.8,150.78 211.15,151.65 212.26,153"
     id="path2734"
     style="fill:#fac528;fill-opacity:1;fill-rule:nonzero;stroke:none" />
  <path
     d="M 136.61,168.19 L 136.5,171.34 C 132.9,171.62 129.21,171.6 126,169.64 C 123.92,167.1 123.22,164.83 124.57,161.79 L 126.88,159.87 C 129.3,163.15 133.23,166.08 136.61,168.19"
     id="path2736"
     style="fill:#fac528;fill-opacity:1;fill-rule:nonzero;stroke:none" />
  <path
     d="M 123.98,171.17 C 122.95,172.35 124.37,175.6 121.58,174.94 C 115.77,175.6 109.2,176.22 105.78,170.74 C 104.77,168.33 104.55,166.03 106.46,163.89 C 111.88,167.38 117.78,169.62 123.98,171.17"
     id="path2738"
     style="fill:#fac528;fill-opacity:1;fill-rule:nonzero;stroke:none" />
  <path
     d="M 217.08,163.64 C 217.7,165.54 217.15,167.48 216.36,169.04 C 213.62,172.05 209.56,172.05 205.58,172.34 L 205.28,168.28 C 208.83,166.7 212.51,164.35 214.77,161.2 C 216.16,161.23 216.52,162.74 217.08,163.64"
     id="path2740"
     style="fill:#fac528;fill-opacity:1;fill-rule:nonzero;stroke:none" />
  <path
     d="M 238.15,171.19 C 237.61,173.43 235.67,174.89 233.71,175.79 C 228.07,176.84 223.01,174.87 218.2,173.19 L 218.17,172.44 C 224.71,170.89 230.76,168.3 236.47,164.8 C 237.91,166.74 238.67,168.79 238.15,171.19"
     id="path2742"
     style="fill:#fac528;fill-opacity:1;fill-rule:nonzero;stroke:none" />
  <path
     d="M 136.92,172.55 C 137.83,174.35 138.36,176.34 139.5,177.98 C 135.93,179.49 130.07,180.7 126.46,178.29 C 124.98,177.5 124.61,175.67 124.48,174.3 C 124.43,173.07 125.01,171.98 125.67,170.95 C 129.03,173.07 133.7,172.52 136.92,172.55"
     id="path2744"
     style="fill:#fac528;fill-opacity:1;fill-rule:nonzero;stroke:none" />
  <path
     d="M 215.71,176.43 C 212.15,180.09 207.6,179.33 203.03,178.34 L 205.31,173.5 C 209.22,173.44 213.12,173.15 216.42,170.65 C 217.86,172.37 216.48,174.72 215.71,176.43"
     id="path2746"
     style="fill:#fac528;fill-opacity:1;fill-rule:nonzero;stroke:none" />
  <path
     d="M 123.46,175.79 L 124.61,177.98 C 120.77,180.12 116.16,184.33 111.31,181.59 C 109.96,180.34 109.12,178.45 109.68,176.89 C 110.45,174.72 112.98,176.85 114.81,176.48 C 117.42,176.32 120.57,176.58 123.46,175.79"
     id="path2748"
     style="fill:#fac528;fill-opacity:1;fill-rule:nonzero;stroke:none" />
  <path
     d="M 232.16,177.45 C 232.81,178.82 232.72,180.59 231.93,182.08 C 231.15,183.7 229.55,184.15 227.95,184.29 C 223.55,183.68 220.4,179.18 216.65,177.09 L 218.01,174.67 C 222.52,176.19 227.23,177.1 232.16,177.45"
     id="path2750"
     style="fill:#fac528;fill-opacity:1;fill-rule:nonzero;stroke:none" />
  <path
     d="M 127.65,181.54 C 124.75,184.1 122.75,190.32 117.77,188.73 C 115.91,187.95 115.3,185.83 115.22,183.83 C 118.86,182.63 122.33,180.97 125.56,178.87 C 126.81,179.2 128.22,180.38 127.65,181.54"
     id="path2752"
     style="fill:#fac528;fill-opacity:1;fill-rule:nonzero;stroke:none" />
  <path
     d="M 226,185.65 C 226.06,187.34 224.98,189.38 223.16,189.75 C 217.92,191.62 217.62,185.27 214.63,182.92 C 214.88,181.37 215.5,179.59 215.23,178.29 L 215.76,177.88 C 219.21,180.29 223.13,182.77 226,185.65"
     id="path2754"
     style="fill:#fac528;fill-opacity:1;fill-rule:nonzero;stroke:none" />
  <path
     d="M 129.21,188.7 C 127.97,190.52 127.58,192.83 126.27,194.49 C 124.35,194.4 123.06,192.84 122.47,191.33 C 121.81,187.74 126.27,186.05 127.7,183 C 127.77,185 130.97,186.72 129.21,188.7"
     id="path2756"
     style="fill:#fac528;fill-opacity:1;fill-rule:nonzero;stroke:none" />
  <path
     d="M 214.28,184 C 216.38,187.08 219.28,190.89 217.26,194.57 C 216.51,194.89 215.85,195.69 215.07,195.4 C 213.88,194.6 214.21,192.75 213.47,191.63 C 213.26,189.79 210.9,188.12 212.22,186.45 C 212.97,185.89 213.61,184.57 214.28,184"
     id="path2758"
     style="fill:#fac528;fill-opacity:1;fill-rule:nonzero;stroke:none" />
  <path
     d="M 134.4,189.83 C 134.3,191.67 132.83,193.42 132.43,195.43 C 131.46,197.99 131.65,201.05 131.82,204.04 C 130.6,204.23 129.25,202.67 128.6,201.62 C 126.05,196.94 128.41,191.97 130.87,188.1 C 132.05,188.69 133.01,189.8 134.4,189.83"
     id="path2760"
     style="fill:#fac528;fill-opacity:1;fill-rule:nonzero;stroke:none" />
  <path
     d="M 210.76,188.35 C 213.21,192.57 214.78,198.25 212.18,202.88 C 211.22,203.68 210.02,204.4 208.77,203.77 C 209.91,199.12 209.32,193.69 207.1,189.4 C 208.23,188.9 209.62,188.85 210.76,188.35"
     id="path2762"
     style="fill:#fac528;fill-opacity:1;fill-rule:nonzero;stroke:none" />
  <path
     d="M 150.11,191.8 C 147.73,196.1 144.92,201.35 148.47,206.05 C 149.82,207.62 151.92,208.47 153.46,208.25 C 152.63,209.05 151.41,209.02 150.4,208.59 C 146.73,207.03 145.98,203.15 146.03,200.08 C 146.7,197.07 147.65,193.8 150.11,191.8"
     id="path2764"
     style="fill:#cc660f;fill-opacity:1;fill-rule:nonzero;stroke:none" />
  <path
     d="M 192.93,205.02 C 192.22,206.49 191.12,208.15 189.61,208.82 C 188.46,208.93 186.27,209.85 185.91,208.25 L 185.9,208.03 C 187.68,208.34 188.98,208.22 190.62,207.17 C 194.38,202.65 191.71,196.69 189.42,192.48 L 189.55,191.87 C 192.9,195.35 193.75,200 192.93,205.02"
     id="path2766"
     style="fill:#cc660f;fill-opacity:1;fill-rule:nonzero;stroke:none" />
  <path
     d="M 159.17,140.54 C 162.7,145.03 168.55,146.78 174.03,145.1 C 178.77,143.92 181.98,139.27 183.77,134.97 C 184.38,134.48 185.21,133.43 186.02,134.34 C 186.6,139.79 183.45,144.28 177.47,147.02 C 175.91,147.3 174.48,148.69 173.97,150.19 L 174.23,172.33 L 165.37,172.09 C 165.9,165.03 165.57,157.69 166.11,150.62 C 164.38,146.22 159.03,147.77 156.25,141.98 C 154.97,139.67 153.1,137.3 153.7,134.39 C 154.23,133.74 154.77,133.82 155.42,134.1 L 159.17,140.54 z"
     id="path2768"
     style="fill:none;stroke:#cc660f;stroke-width:0.45985;stroke-linecap:square;stroke-linejoin:miter;stroke-miterlimit:2;stroke-opacity:1" />
  <path
     d="M 182.82,196.85 L 204.61,180.62 L 177.57,180.98 L 170.13,155.27 L 160.76,181.2 L 133.73,181.57 L 155.87,197.19 L 147.82,222.99 L 169.5,206.87 L 191.51,222.5 L 182.82,196.85 L 182.82,196.85"
     id="path2770"
     style="fill:#ffffff;fill-opacity:1;fill-rule:nonzero;stroke:none" />
  <path
     d="M 182.82,196.85 L 204.6,180.62 L 177.57,180.98 L 170.13,155.27 L 160.76,181.2 L 133.75,181.55 L 155.87,197.18 L 147.82,223 L 169.5,206.85 L 191.51,222.52 L 182.82,196.85 L 182.82,196.85 z"
     id="path2772"
     style="fill:none;stroke:#cc660f;stroke-width:0.41922;stroke-linecap:butt;stroke-linejoin:miter;stroke-miterlimit:4;stroke-opacity:1" />
  <path
     d="M 169.45,205.09 C 176.36,205 181.88,199.32 181.78,192.4 C 181.71,185.49 176.02,179.97 169.11,180.05 C 162.2,180.14 156.66,185.83 156.76,192.74 C 156.85,199.65 162.53,205.18 169.45,205.09"
     id="path2774"
     style="fill:#cc0c3d;fill-opacity:1;fill-rule:nonzero;stroke:none" />
</svg>
